<svg xmlns="http://www.w3.org/2000/svg" aria-hidden="true" style="position:absolute;width:0;height:0;overflow:hidden">
<defs>
<symbol id="x" width="30"
 height="30"
 fill="none"
 xmlns="http://www.w3.org/2000/svg">
 <path d="m8 8 14 14M8 22 22 8"
  stroke="#000" stroke-width="2"/></symbol>

  <symbol id="search" width="12" 
height="12"
fill="none"
xmlns="http://www.w3.org/2000/svg">
<path d="M5.5 9.5c2.2091 0 4-1.7909 4-4 0-2.2091-1.7909-4-4-4-2.2091 0-4 1.7909-4 4 0 2.2091 1.7909 4 4 4ZM10.5 10.5002l-2.175-2.175" 
stroke="#fff" 
stroke-linecap="round" 
stroke-linejoin="round"/></symbol>

<symbol id="arrow_left" width="16" 
height="16"
 fill="none"
  xmlns="http://www.w3.org/2000/svg">
  <path d="M12.6666 8H3.3332M8 12.6668 3.3332 8.0002l4.6666-4.6667"
   stroke="#000"
    stroke-width="1.3333"
     stroke-linecap="round"
      stroke-linejoin="round"/>
</symbol>

<symbol id="arrow_right"  width="16" 
height="16" 
viewBox="0 0 16 16"
 fill="none"
  xmlns="http://www.w3.org/2000/svg">
<path d="M12.6666 8H3.33325" stroke="black" stroke-width="1.33333" stroke-linecap="round" stroke-linejoin="round"/>
<path d="M7.99992 12.6668L3.33325 8.00016L7.99992 3.3335" stroke="black" stroke-width="1.33333" stroke-linecap="round" stroke-linejoin="round"/></symbol>

<symbol id="dots" width="10" 
height="3"
 fill="none"
  xmlns="http://www.w3.org/2000/svg">
  <path d="M1.6172.5c.2656 0 .4707.0762.6152.2285.1445.1485.2168.336.2168.5625 0 .2227-.0722.4082-.2168.5567-.1445.1445-.3496.2167-.6152.2167-.254 0-.455-.0722-.6035-.2167C.8652 1.703.791 1.5176.791 1.291c0-.2266.0723-.414.2168-.5625C1.1523.5762 1.3555.5 1.6172.5Zm3.3516 0c.2656 0 .4707.0762.6152.2285.1445.1485.2168.336.2168.5625 0 .2227-.0723.4082-.2168.5567-.1445.1445-.3496.2167-.6152.2167-.254 0-.4551-.0722-.6036-.2167-.1484-.1446-.2226-.3301-.2226-.5567 0-.2266.0722-.414.2168-.5625C4.5039.5762 4.707.5 4.9688.5Zm3.3515 0c.2656 0 .4707.0762.6152.2285.1446.1485.2168.336.2168.5625 0 .2227-.0722.4082-.2168.5567-.1445.1445-.3496.2167-.6152.2167-.2539 0-.455-.0722-.6035-.2167-.1484-.1446-.2227-.3301-.2227-.5567 0-.2266.0723-.414.2168-.5625C7.8555.5762 8.0586.5 8.3203.5Z" 
  fill="#000"/></symbol>

  <symbol id="heart" width="14" 
height="13"
 fill="none"
  xmlns="http://www.w3.org/2000/svg">
  <path d="m7 12.88-.98-.98C2.38 8.68 0 6.51 0 3.85 0 1.68 1.68 0 3.85 0 5.04 0 6.23.56 7 1.47 7.77.56 8.96 0 10.15 0 12.32 0 14 1.68 14 3.85c0 2.66-2.38 4.83-6.02 8.05l-.98.98Z" 
  fill="#FF6B08"/></symbol>

  <symbol id="movie" width="24"
 height="24" 
 fill="none" 
 xmlns="http://www.w3.org/2000/svg">
 <path d="M19.82 2H4.18C2.976 2 2 2.976 2 4.18v15.64C2 21.024 2.976 22 4.18 22h15.64c1.204 0 2.18-.976 2.18-2.18V4.18C22 2.976 21.024 2 19.82 2ZM7 2v20M17 2v20M2 12h20M2 7h5M2 17h5M17 17h5M17 7h5"
  stroke="#818181" 
  stroke-width="2"
   stroke-linecap="round"
    stroke-linejoin="round"/></symbol>
    </defs></svg>
