<?xml version="1.0" encoding="UTF-8" standalone="no"?>
<svg
   xmlns:dc="http://purl.org/dc/elements/1.1/"
   xmlns:cc="http://creativecommons.org/ns#"
   xmlns:rdf="http://www.w3.org/1999/02/22-rdf-syntax-ns#"
   xmlns:svg="http://www.w3.org/2000/svg"
   xmlns="http://www.w3.org/2000/svg"
   id="svg8"
   version="1.1"
   viewBox="0 0 134.50642 195.5997"
   height="195.5997mm"
   width="134.50642mm">
  <defs
     id="defs2" />
  <metadata
     id="metadata5">
    <rdf:RDF>
      <cc:Work
         rdf:about="">
        <dc:format>image/svg+xml</dc:format>
        <dc:type
           rdf:resource="http://purl.org/dc/dcmitype/StillImage" />
        <dc:title></dc:title>
      </cc:Work>
    </rdf:RDF>
  </metadata>
  <g
     transform="translate(-35.498088,-52.934078)"
     id="layer1">
    <path
       id="path4753"
       transform="scale(0.26458333)"
       d="m 359.16797,466.70117 c -1.2162,-0.0331 -2.943,2.49897 -5.41406,7.69141 -2.09925,4.41112 -4.50366,10.03837 -5.34375,12.5039 -0.98632,2.89471 -1.9373,4.23035 -2.6836,3.77344 -0.63566,-0.38918 -2.68067,-1.73873 -4.54492,-3 -3.91544,-2.64892 -6.10937,-2.93369 -6.10937,-0.79297 0,0.825 0.43398,1.5 0.96484,1.5 1.56641,0 8.03516,6.08642 8.03516,7.56055 0,0.99749 0.458,5.53857 -5.25,5.75362 -4.5765,0.43607 -7.17846,0.22339 -12.60352,2.3245 -4.55787,1.72041 -6.57789,5.73689 -7.14648,14.20704 -0.64005,9.53469 -2.64394,11.41669 -6.80274,6.39453 -2.00198,-2.41762 -3.50763,-3.25756 -5.83203,-3.25 -3.9326,0.0113 -4.33342,1.32327 -4.35156,14.1875 -0.0132,9.35501 -0.10529,9.74906 -2.76367,11.85547 -2.36008,1.87022 -3.5653,2.09518 -8.5,1.58789 -5.32265,-0.54717 -5.75,-0.43902 -5.75,1.45898 0,3.55234 2.02664,6.04519 6.54296,8.04297 5.15271,2.27928 5.01871,3.62985 -0.67187,6.82812 -4.13003,2.32124 -4.33289,3.07806 -2.26953,8.45508 0.39945,1.04096 0.0665,1.59375 -0.96094,1.59375 -0.86471,0 -3.10714,1.34784 -4.98437,2.9961 -3.3999,2.98518 -3.41299,3.0307 -3.39258,11.75 0.0269,11.52514 -1.17996,14.08746 -12.08203,25.66797 -6.58001,6.98948 -10.60506,12.44013 -15.13086,20.49218 -5.30558,9.43934 -6.81884,11.3509 -10.85743,13.70313 -9.22245,5.37154 -23.93555,21.51073 -28.71289,31.49609 -0.89337,1.86732 -3.33021,4.61706 -5.41601,6.11133 -9.33045,6.68436 -21.24868,23.43758 -30.15625,42.39063 -3.31892,7.06178 -6.96696,13.00242 -10.375,16.89257 -17.80156,20.31976 -30.86967,48.75845 -32.16602,70 -0.54737,8.96916 -0.53898,9.01237 2.5918,12.72266 7.0604,8.36734 17.68051,11.36849 46.54102,13.15039 16.32027,1.00766 21.76246,1.69384 24.42382,3.07812 8.94648,4.65351 30.47307,10.857 43.91993,12.65821 10.24512,1.37234 35.97254,0.57985 41.15625,-1.26758 3.04489,-1.08518 57.75491,-2.29239 136.5,-3.01367 4.40001,-0.0403 9.90743,0.44848 12.24023,1.08594 4.82574,1.3186 8.38454,-0.46932 11.5293,-5.79297 1.0817,-1.83115 3.10388,-3.20705 5.93554,-4.03711 2.45749,-0.72042 6.05942,-2.96984 8.41993,-5.25782 6.42841,-6.23096 8.17227,-5.39674 11.86914,5.67383 4.37457,13.09996 8.23136,18.8626 15.5,23.15625 2.52665,1.49254 3.00586,2.39788 3.00586,5.69336 0,2.1555 0.50012,6.67176 1.11328,10.03516 1.24633,6.83671 -0.45143,11.94822 -7.79297,23.45117 -4.53256,7.10173 -5.0325,9.98915 -2.32617,13.42969 3.39235,4.31267 10.66272,3.10763 14.77734,-2.44922 5.12118,-6.91612 6.87729,-5.64583 5.30859,3.83984 -1.15154,6.96324 -0.48381,11.94552 2,14.93946 0.64048,0.7717 2.34584,1.38608 3.79102,1.36718 6.15844,-0.0831 11.12528,-5.71724 15.65625,-17.75976 4.23538,-11.25687 6.28722,-11.78231 8.08008,-2.06836 2.13044,11.54321 5.25568,14.86328 14,14.86328 7.90246,0 6.3627,-15.58359 -3.50977,-35.5 -4.86134,-9.80716 -5.7938,-12.89284 -8.14648,-27 -0.64207,-3.85002 -2.64587,-10.37499 -4.45313,-14.5 -3.40259,-7.7664 -5.98542,-16.84661 -5.05664,-17.77539 0.29273,-0.29273 7.35493,-0.90428 15.69336,-1.35938 8.33839,-0.45505 15.31985,-0.98781 15.51563,-1.18359 0.19574,-0.1957 0.85031,-3.01747 1.45507,-6.26953 1.02191,-5.49528 0.41267,-47.76351 -0.71484,-49.58789 -0.39749,-0.64316 -5.58764,-1.81011 -14.73633,-3.31641 l -3.84375,-0.63476 0.66992,-11.68555 c 0.36923,-6.4278 0.86661,-12.39366 1.10547,-13.25781 0.43193,-1.56352 15.33639,-3.95067 24.58399,-3.93555 l 3.66992,0.008 0.67383,-6.29492 0.67383,-6.29297 15.65625,-1.70117 c 8.61055,-0.93558 19.35743,-1.992 23.88281,-2.34766 9.35342,-0.73542 9.38792,-0.76409 13.67969,-11.32617 4.0233,-9.90141 7.2735,-27.18734 9.50195,-50.53711 3.73266,-39.11081 4.25761,-48.63462 2.81641,-51.07226 -1.62169,-2.74288 -7.53182,-7.89093 -16.72461,-14.56641 -7.23568,-5.25434 -10.58555,-7.40242 -23.5,-15.06836 -12.94749,-7.68552 -40.28227,-20.0329 -63.64258,-28.75 -5.70592,-2.12919 -6.46461,-3.03493 -8.42188,-10.04297 -0.38404,-1.37499 -2.47853,-7.12717 -4.65429,-12.7832 l -3.95704,-10.28516 -8.95507,-4.49804 c -21.2278,-10.66122 -32.14984,-9.38762 -48.2168,5.61718 -4.09308,3.82247 -7.90226,6.94922 -8.46484,6.94922 -3.75795,1.00971 -6.48052,2.8758 -9.83036,6.07255 l -0.35714,-6.98661 c -0.22637,-4.42832 -0.25259,-4.94885 -2.98829,-6.08203 -2.33525,-0.9673 -2.95177,-1.81276 -2.81836,-3.87109 0.54029,-8.32525 0.36176,-8.50805 -9.44335,-9.62305 l -5.75,-0.6543 v -8.42773 c -0.34298,-8.43689 -3.05134,-4.39047 -6.32143,-5.03688 -4.67989,-0.92509 -6.05954,-6.52124 -7.30943,-10.39091 -1.39711,-4.32548 -5.67512,-5.36804 -14.54102,-3.54101 -3.20549,0.6607 -5.82812,0.86993 -5.82812,0.46484 0,-1.69398 -9.79383,-3.92383 -17.23047,-3.92383 h -7.87305 l -1.56641,-3.75 c -0.86199,-2.06249 -1.85567,-5.76968 -2.20898,-8.23828 -0.4414,-3.08402 -1.07946,-4.66176 -2.02539,-4.6875 z m 95.98211,321.14933 c 0,0 0.38041,3.18595 -0.24412,5.43109 -8.37201,-1.06931 -31.65891,-4.63655 -55.24882,-9.9691 -23.5899,-5.33255 -41.65042,-7.80599 -41.32836,-10.46316 23.66468,7.31747 38.29111,-3.41968 53.10364,-13.29946 2.9343,25.54402 22.73022,22.1113 43.71766,28.30063 z"
       style="fill:#000000;stroke-width:0.99999994" />
    <path
       id="path4751"
       d="m 138.3641,245.23484 c 1.96727,-3.73198 2.17285,-5.40105 1.45816,-11.83878 -0.11086,-0.99861 -0.0728,-1.52135 0.11063,-1.52135 0.36351,0 0.453,0.3483 1.00616,3.91588 0.3535,2.27989 0.60077,3.13788 1.04132,3.61324 0.92837,1.00173 1.67483,2.8015 1.8703,4.50942 0.0999,0.87313 0.31248,1.67497 0.47235,1.78189 0.52181,0.34896 1.7569,0.21705 1.91883,-0.20493 0.25719,-0.67024 -0.41777,-3.48879 -1.35145,-5.64347 -0.88732,-2.04769 -1.19416,-2.95697 -2.91336,-8.63349 -2.99902,-9.9023 -5.8254,-13.90126 -11.42551,-16.16564 -1.2881,-0.52084 -2.95518,-1.01137 -3.70462,-1.09006 -1.34719,-0.14146 -1.37028,-0.13146 -2.03859,0.88339 -0.37179,0.56456 -0.97159,1.69774 -1.33291,2.51817 l -0.65693,1.49169 1.20932,0.46185 c 2.94878,1.12615 3.25243,1.43113 4.19735,4.21571 1.02967,3.03433 2.11331,4.62336 4.01927,5.89375 0.36914,0.24604 0.59371,0.66167 0.59109,1.09397 -0.002,0.38344 0.19584,1.85143 0.44037,3.26219 l 0.44459,2.56502 -1.08393,1.40497 c -1.29858,1.68321 -2.43649,4.03548 -2.44006,5.04406 l -0.003,0.73116 0.97794,-0.40862 c 1.53503,-0.64137 2.57687,-1.56269 3.95389,-3.49651 l 1.27498,-1.79052 0.15041,-3.09948 c 0.15021,-3.09509 0.30101,-3.70958 0.79029,-3.2203 0.49402,0.49403 0.66287,6.65407 0.1968,7.18004 -0.7529,0.84968 -1.30934,3.08195 -1.4562,5.84182 l -0.14545,2.73333 0.72527,-0.0875 c 0.59675,-0.072 0.89838,-0.4159 1.70227,-1.9409 z"
       style="fill:#ffe0bd;fill-opacity:1;stroke-width:0.26458332" />
    <path
       id="path4749"
       d="m 73.0439,225.6592 c 3.045952,-0.15245 6.048007,-0.5051 6.228575,-0.73167 0.183306,-0.69604 0.263668,-1.24066 0.3992,-1.99116 L 76.45823,221.2049 c -1.28862,-0.74342 -5.449783,-2.42051 -6.986205,-2.89951 -3.333155,-1.03917 -5.010748,-0.77055 -9.070028,1.45236 -1.693293,0.92726 -1.563477,0.25402 0.140341,-0.72782 1.274651,-0.74271 2.37046,-1.62169 3.510888,-2.54071 l -1.656225,-0.82563 c -1.637766,-0.81643 -5.228101,-3.99539 -5.228101,-4.62907 0,-0.17315 1.339453,0.56281 2.976562,1.63547 1.726039,1.13093 4.088138,2.39353 5.622396,3.00531 1.455209,0.58026 4.074584,1.6218 5.820834,2.31454 1.74625,0.69273 4.372017,1.83047 5.835038,2.52831 3.216019,1.53401 4.443887,1.75095 11.098295,1.96084 4.703538,0.28552 9.888776,0.49612 13.927905,0.44361 l 6.51957,-0.0911 0.18357,-1.95892 c 0.15944,-1.70146 0.46135,-2.52179 0.80254,-2.1806 0.0547,0.0547 0.12025,0.69168 0.14569,1.41555 0.0818,2.32664 0.41819,3.19503 1.42233,3.67152 0.80851,0.38366 3.17388,0.95191 3.96239,0.95191 0.16567,0 0.51344,-1.03129 0.773,-2.29227 0.59281,-2.87996 1.21667,-4.72694 2.87504,-8.51174 0.72269,-1.64934 1.27437,-3.02652 1.22597,-3.0604 -0.0484,-0.0339 -2.11207,-0.38412 -4.58592,-0.77832 -7.18143,-1.14432 -8.46399,-1.4034 -14.58151,-2.94546 -7.131237,-1.79759 -6.993453,-1.79282 -8.035647,-0.27805 -1.034174,1.50312 -2.337686,4.2479 -2.547723,5.36468 -0.09816,0.52192 -0.319741,0.85989 -0.563769,0.85989 -0.689141,0 -0.217035,-1.63674 1.371712,-4.75558 2.028097,-3.98132 1.952744,-5.33661 -0.221986,-3.99256 -1.386927,0.85717 -3.598479,4.56634 -3.598995,6.03616 -2.06e-4,0.58951 -0.617228,0.83074 -0.910619,0.35603 -0.234505,-0.37944 1.071192,-3.95157 1.832623,-5.01369 1.980669,-2.76284 2.517371,-3.55322 2.517371,-3.70721 0,-0.093 -0.982266,-0.76179 -2.182813,-1.48615 -6.09913,-3.67998 -10.168064,-7.3346 -11.339457,-8.50833 -0.109744,-0.10996 -1.056272,-0.9223 -2.220439,-1.72846 -6.764843,-4.6845 -10.246455,-5.00362 -15.386714,-1.41032 -2.125807,1.48604 -2.155616,1.01945 -0.06477,-1.01384 1.678329,-1.63212 1.664872,-1.67248 -0.35737,-1.07169 -0.559232,0.16614 -0.605293,-0.2472 -0.08547,-0.76702 0.509981,-0.50999 3.350884,-1.05269 5.367147,-1.0253 3.649403,0.0496 10.981512,3.54913 14.321803,6.83567 1.07351,1.05624 2.176928,1.99187 2.56459,2.41374 0.387662,0.42188 0.693068,0.71151 1.066345,0.85343 1.175298,0.44685 1.302634,0.28527 0.474303,-0.60186 -0.441598,-0.47294 -1.136507,-1.44539 -1.544244,-2.16099 -2.018892,-3.54329 -7.318557,-7.12964 -12.374888,-8.37425 -0.691223,-0.17014 -1.25677,-0.41428 -1.25677,-0.54252 0,-0.31319 2.283468,-0.29414 3.445682,0.0287 0.512677,0.14243 1.750721,0.79661 2.751209,1.45373 1.000487,0.65713 1.920478,1.19477 2.044422,1.19477 0.123944,0 0.228195,-0.98226 0.231666,-2.18281 0.0059,-2.03115 0.159486,-3.15687 0.631598,-4.62854 0.148034,-0.46146 0.102819,-0.56003 -0.20306,-0.44265 -0.531019,0.20377 -1.493184,-0.34008 -1.493184,-0.844 0,-0.22355 -0.162211,-0.56867 -0.360466,-0.76693 -0.531833,-0.53183 -0.748935,-2.77994 -0.452061,-4.68116 0.431977,-2.76643 0.386863,-4.20427 -0.205905,-6.56224 -0.310948,-1.23693 -0.566195,-2.51685 -0.567213,-2.84427 -0.0021,-0.70428 -0.277172,-0.74017 -1.364189,-0.17806 l -0.80689,0.41726 0.124982,4.41139 c 0.06874,2.42626 0.213513,4.67928 0.32172,5.0067 0.160689,0.48623 0.0985,0.59531 -0.339381,0.59531 -0.553104,0 -0.723482,-0.6668 -1.250694,-4.89479 -0.348032,-2.79107 -0.435543,-2.88764 -1.673058,-1.84634 -0.748125,0.6295 -1.891678,3.118 -2.282298,4.96652 -0.08588,0.40642 -0.360961,0.8062 -0.611286,0.88841 -3.483493,1.14404 -6.647514,4.08386 -8.524928,7.92086 -0.453072,0.92598 -1.274087,1.87567 -2.606066,3.01453 -3.002548,2.56721 -5.511542,6.4352 -6.953976,10.7206 -0.195925,0.58209 -0.868595,1.65365 -1.494823,2.38125 -3.524716,4.09532 -7.14293,10.3452 -8.347975,14.4198 -1.027049,3.83336 -1.074797,4.60694 -1.522901,7.87904 5.431801,2.00209 10.352522,2.56142 14.886612,2.95548 2.315248,0.19734 2.833484,0.34917 5.423958,1.58906 2.785156,1.33308 3.520865,1.56434 6.826183,2.14573 0.869442,0.15293 1.603812,0.30107 1.631937,0.32919 0.08435,0.0844 3.961191,-0.0214 7.767468,-0.21193 z"
       style="fill:#037290;fill-opacity:1;stroke-width:0.26458332" />
    <path
       id="path4747"
       d="m 112.11095,222.39502 c -0.91997,-1.01655 -0.37526,-2.95817 0.8282,-2.95212 1.61099,0.008 1.90892,0.23713 1.90892,1.46746 0,1.73287 -1.68524,2.64698 -2.73712,1.48466 z"
       style="fill:#000000;stroke-width:0.26458332" />
    <path
       id="path4745"
       d="m 113.62913,221.66661 c 0.35395,-0.92236 0.18216,-1.47345 -0.43201,-1.38582 -0.60439,0.0862 -0.89191,0.73697 -0.62869,1.42291 0.19543,0.50929 0.85996,0.48605 1.0607,-0.0371 z"
       style="fill:#6e6e6e;fill-opacity:1;stroke-width:0.26458332" />
    <path
       id="path4743"
       d="m 81.749012,215.70714 c -1.492605,-1.59783 -0.886558,-3.69213 2.558767,-8.84222 1.471072,-2.19896 3.160117,-4.04608 3.442036,-3.76416 0.146126,0.14613 -1.320491,2.52546 -1.753516,2.84478 -0.47852,0.35287 -2.964071,4.35341 -3.304802,5.31915 -0.725458,2.05616 -0.469966,4.20297 0.501023,4.2099 0.762307,0.005 1.338136,0.3982 1.114454,0.76012 -0.37547,0.60752 -1.765419,0.32086 -2.557962,-0.52757 z"
       style="fill:#000000;stroke-width:0.26458332" />
    <path
       id="path4741"
       d="m 108.40591,224.49347 0.75362,-0.20563 -0.66146,-0.2158 c -0.63106,-0.20589 -2.56611,-0.21005 -9.657295,-0.0208 -1.825601,0.0487 -4.187047,-0.0699 -5.55625,-0.27921 -1.573011,-0.24041 -4.19921,-0.3415 -7.737367,-0.29783 -5.564848,0.0687 -5.901848,0.14743 -4.90353,1.14575 0.424574,0.42457 1.370401,0.443 13.732319,0.26756 7.301983,-0.10363 13.615473,-0.28096 14.029963,-0.39406 z"
       style="fill:#595959;fill-opacity:1;stroke-width:0.26458332" />
    <path
       id="path4739"
       d="m 120.0323,222.00686 c 0.0246,-0.0297 0.4311,-0.82793 0.90334,-1.77382 0.47224,-0.94588 1.06679,-2.01745 1.32124,-2.38125 0.25444,-0.3638 1.02561,-1.73176 1.71371,-3.03991 l 1.25109,-2.37847 -0.62274,-0.17485 c -1.48564,-0.41714 -2.8163,-0.24921 -3.3443,0.42203 -0.94423,1.2004 -2.40004,4.49184 -2.95036,6.67049 -0.77792,3.07969 -0.77339,3.10265 0.56875,2.88804 0.613,-0.098 1.13467,-0.20254 1.15927,-0.23226 z"
       style="fill:#d7e8e8;fill-opacity:1;stroke-width:0.26458332" />
    <path
       id="path4737"
       d="m 122.92988,221.70028 c 0.94551,-0.94551 0.86008,-1.52108 -0.21046,-1.41786 -0.78504,0.0757 -0.86704,0.16928 -0.94201,1.0751 -0.0966,1.1671 0.23077,1.26446 1.15247,0.34276 z"
       style="fill:#d7e8e8;fill-opacity:1;stroke-width:0.26458332" />
    <path
       id="path4735"
       d="m 147.64773,220.05247 c 0.068,-0.0609 0.17182,-2.80135 0.23072,-6.08982 l 0.1071,-5.97904 -0.62759,0.17728 c -0.61293,0.17315 -7.37555,0.4774 -18.68541,0.84068 -5.50862,0.17693 -5.62232,0.19201 -5.61835,0.74509 0.006,0.89121 0.30848,1.14805 1.58345,1.34627 0.80239,0.12475 1.37577,0.40587 1.75844,0.86215 0.33299,0.39706 1.50267,1.03847 2.82839,1.551 2.88592,1.11572 5.38598,2.7746 7.68116,5.09674 l 1.81694,1.83829 4.40077,-0.13893 c 2.42042,-0.0764 4.45639,-0.18878 4.52438,-0.24971 z"
       style="fill:#6f6f6f;fill-opacity:1;stroke-width:0.26458332" />
    <path
       id="path4731"
       d="m 131.51682,208.04718 c 5.31151,-0.15264 10.66932,-0.42956 11.90625,-0.61536 l 2.24895,-0.33782 -1.05833,-0.27995 c -5.37729,-1.42238 -18.85641,-1.01481 -20.79062,0.62866 -0.22974,0.1952 -0.70599,0.36678 -1.05834,0.38129 -0.35234,0.0145 -0.93828,0.1217 -1.30208,0.23821 -0.93792,0.30037 -0.91979,0.30035 10.05417,-0.015 z"
       style="fill:#595959;fill-opacity:1;stroke-width:0.26458332" />
    <path
       id="path4729"
       d="m 121.52684,206.34094 c 3.21204,-0.41636 3.90859,-2.37211 5.51209,-15.47665 0.49278,-4.02729 1.47632,-11.66832 2.73173,-21.22263 0.51283,-3.90291 0.59958,-5.30291 0.4099,-6.61458 -0.13233,-0.91511 -0.243,-1.76846 -0.24592,-1.89635 -0.0122,-0.53345 -2.79181,0.1855 -4.8419,1.25235 -4.43211,2.30644 -6.87662,2.38904 -7.7652,0.26237 -0.56997,-1.36413 -0.30368,-1.74871 1.95514,-2.82368 2.47739,-1.17898 2.77022,-1.39707 3.32966,-2.47974 1.42679,-2.76125 3.30444,-4.93909 5.00066,-5.80015 1.63467,-0.8298 2.4488,-2.11651 2.82585,-4.46613 0.16346,-1.01865 0.35965,-2.16298 0.43596,-2.54297 0.12281,-0.61147 0.0384,-0.70997 -0.7341,-0.857 -0.48007,-0.0914 -1.46816,-0.29531 -2.19577,-0.4532 -1.94017,-0.42101 -7.65174,-0.34082 -8.54275,0.11994 -2.54149,1.31425 -3.47203,4.83901 -5.31628,20.1374 -0.43857,3.63802 -0.99559,8.22192 -1.23781,10.18646 -0.24222,1.96453 -0.53866,4.5839 -0.65876,5.82083 -0.1201,1.23693 -0.33695,3.20146 -0.48189,4.36562 -0.14494,1.16417 -0.33296,2.77151 -0.41781,3.57188 -0.0849,0.80036 -0.29189,2.46724 -0.46009,3.70417 -0.1682,1.23692 -0.31511,4.21348 -0.32646,6.61458 -0.023,4.86465 0.14128,5.48828 1.76501,6.69994 1.30426,0.97326 6.17085,2.37347 7.47476,2.15063 0.29104,-0.0497 1.09383,-0.16363 1.78398,-0.25309 z"
       style="fill:#6e6e6e;fill-opacity:1;stroke-width:0.26458332" />
    <path
       id="path4727"
       d="m 134.55952,205.15997 c 7.4964,-0.37509 7.68585,-0.412 8.01868,-1.56219 0.15271,-0.52774 0.35962,-1.7632 0.45979,-2.74547 0.17091,-1.67584 0.14918,-1.78593 -0.35261,-1.78593 -1.21237,0 -13.91428,1.48365 -15.03908,1.75664 -0.42753,0.10377 -0.59997,0.40265 -0.71571,1.24055 -0.0839,0.60712 -0.23304,1.60986 -0.3315,2.22833 l -0.17903,1.12448 1.68848,-0.009 c 0.92867,-0.005 3.83161,-0.11629 6.45098,-0.24735 z"
       style="fill:#464646;fill-opacity:1;stroke-width:0.26458332" />
    <path
       id="path4725"
       transform="matrix(0.26458333,0,0,0.26458333,35.498088,52.934078)"
       d="m 231.54102,330.05078 c -1.07632,0.16166 -2.69917,2.66269 -5.06641,7.39453 -2.94927,5.89527 -3.56836,8.21809 -3.56836,13.37696 0,11.0779 -3.82632,10.69022 -5.62695,-0.57032 -0.74348,-4.6495 -0.83232,-4.6729 -5.58789,-1.4414 -2.0235,1.37499 -4.61879,2.5 -5.76563,2.5 -3.54286,0 -9.13044,2.8479 -13.50781,6.88281 -3.43972,3.17065 -5.90073,5.00587 -10.30469,7.68945 -0.16052,0.0979 0.36344,1.92157 1.16406,4.05274 0.80064,2.13112 1.69585,6.22376 1.99024,9.09375 0.50323,4.90601 0.36086,5.34271 -2.4082,7.31445 -6.41264,4.5662 -8.29826,9.86682 -9.03516,25.4082 -0.66799,14.08823 -1.21284,17.33582 -6.81445,40.5586 -1.65833,6.875 -3.91809,16.32499 -5.01954,21 -1.10143,4.67501 -2.52803,10.56035 -3.17187,13.07812 -1.5289,5.97891 0.86287,18.55647 4.5293,23.81836 2.6113,3.7476 8.30772,8.68025 11.93501,12.34708 3.62729,3.66682 8.43975,9.75644 9.30717,9.75644 0.27871,0 1.85154,-0.95786 3.4961,-2.12891 3.01261,-2.14515 6.28156,-2.1987 15.07031,-0.24805 3.74631,0.83158 3.67367,-1.66745 -0.14063,-4.87695 -2.40572,-2.02431 -4.37274,-2.53538 -11.75,-3.06055 -4.8733,-0.34696 -10.36802,-0.93313 -12.21093,-1.30273 -4.57905,-3.3337 -5.26944,-5.67209 -5.5293,-11.51953 -0.1027,-2.31106 -0.21454,-3.20148 2.78516,-6.20117 4.59312,-4.59315 8.18236,-5.2162 22,-3.82227 6.10225,0.61557 17.2832,1.67281 24.8457,2.34961 8.53405,0.76373 13.75,1.64549 13.75,2.32422 0,0.60143 1.28299,2.86821 2.85156,5.03906 5.00524,6.92712 7.10375,16.96669 3.39844,16.25977 -1.15074,-0.21959 -2.57619,-2.68387 -4.16211,-7.19727 l -2.41211,-6.86328 -8.54492,0.69336 c -4.69977,0.38135 -8.98823,0.77541 -9.5293,0.875 -0.54107,0.0998 -1.14515,-0.54892 -1.34179,-1.43945 -0.38868,-1.76024 5.69093,-3.78895 11.93164,-3.98243 9.24204,-0.28648 -14.67293,-3.06985 -27.69141,-3.22265 -13.21789,-0.15496 -15.47523,0.0619 -19,1.82422 -3.63305,1.81651 -3.9747,2.31771 -3.71875,5.45703 0.41948,5.14526 2.66055,7.04297 8.31445,7.04297 2.6323,0 5.06438,-0.45001 5.4043,-1 2.26326,-3.66203 12.47934,2.30624 17.5,10.22265 3.57737,5.64068 8.55683,9.51378 15.25,11.86328 2.0625,0.72397 3.75,1.95933 3.75,2.74414 0,1.7486 -6.62242,0.93558 -11.05664,-1.35742 -1.56495,-0.80927 -4.14817,-1.47265 -5.74023,-1.47265 -1.67167,0 -3.69812,-0.88747 -4.79688,-2.10157 -4.2392,-4.68427 -11.95866,-6.69903 -16.55859,-4.32031 -2.22661,1.15143 -2.82033,1.99586 -2.28125,3.24024 0.40086,0.92534 1.22386,3.17777 1.83007,5.00586 0.87596,2.64155 2.71872,4.28366 8.97461,8 7.61959,4.52643 16.62891,13.03111 16.62891,15.69726 0,1.91414 6.60388,2.65967 13.5,1.52539 5.07133,-0.83414 6.47612,-1.54695 9.07617,-4.60742 2.42825,-2.85827 4.31376,-3.90889 8.95703,-4.98828 3.23528,-0.75205 6.07766,-1.17235 6.31641,-0.9336 0.78474,0.78471 -2.15093,3.59393 -5.7832,5.53321 -5.32312,2.84209 -6.86672,4.30048 -7.58789,7.17383 -0.64472,2.56879 -0.60425,2.59039 3.25781,1.72265 2.15112,-0.48332 7.58758,-2.28056 12.08008,-3.99609 v -0.002 c 6.33494,-2.41909 9.68508,-4.4913 14.92578,-9.23438 l 6.75781,-6.11523 1.16602,-9.54883 c 0.64149,-5.25226 1.68575,-14.72578 2.32226,-21.05078 0.63647,-6.325 1.78106,-16.675 2.54297,-23 0.76191,-6.325 2.12389,-18.24997 3.02734,-26.5 0.90346,-8.24999 2.43323,-21.52501 3.39844,-29.5 1.48078,-12.23479 1.54296,-14.74603 0.39844,-16.07813 -0.746,-0.86831 -1.35547,-3.1625 -1.35547,-5.09765 0,-2.46346 -0.56678,-3.78784 -1.88867,-4.41993 -1.8353,-0.8776 -1.82177,-1.16958 0.4707,-10.40429 1.2971,-5.22501 3.28639,-14 4.42188,-19.5 l 2.06445,-10 -2.19922,-1.79297 c -1.62402,-1.32431 -2.39278,-1.4803 -2.93945,-0.5957 -0.51568,0.83433 -1.54706,0.32772 -3.40039,-1.67188 l -2.66016,-2.87109 c -3.35806,1.57562 -7.06021,4.7092 -10.61328,5.02148 -0.33222,-0.33222 0.55426,-3.41204 1.96875,-6.8457 2.9269,-7.10502 2.87623,-7.41817 -0.94336,-5.92578 -1.53014,0.59788 -4.13126,1.22107 -5.78125,1.38476 -3.74759,0.37191 -3.79474,-2.60886 -0.11719,-7.51953 3.91673,-5.23 4.13753,-7.30501 0.89844,-8.43555 -1.53048,-0.53419 -5.00831,-2.38349 -7.72852,-4.10937 -6.14211,-3.89707 -6.9948,-3.90155 -8.58984,-0.0508 -1.09447,2.64234 -1.65141,2.9926 -3.87109,2.44336 -5.94391,-1.47077 -6.27577,-1.2918 -8.22461,4.38672 -2.07279,6.03968 -4.01678,8.59134 -8.1836,10.74609 -4.50825,2.33133 -5.01664,1.13242 -1.47656,-3.48242 3.26016,-4.24993 3.29297,-4.39514 3.29297,-15.22852 0,-7.76012 -0.4814,-11.42073 -1.86523,-11.21289 z"
       style="fill:#ffe0bd;fill-opacity:1;stroke-width:0.99999994" />
    <path
       id="path4723"
       d="m 98.973067,197.15587 c 0,-0.28076 0.399452,-0.44434 1.363913,-0.55857 1.70378,-0.20179 2.52631,-0.92007 2.74322,-2.39553 0.088,-0.59868 0.20283,-1.32664 0.25516,-1.61769 0.0523,-0.29104 0.10425,-0.79705 0.11538,-1.12448 0.0119,-0.35118 0.18752,-0.59531 0.42815,-0.59531 0.34741,0 0.38204,0.30414 0.23346,2.05052 -0.28055,3.29764 -1.02269,4.21323 -3.63349,4.48269 -1.23141,0.12709 -1.505793,0.0831 -1.505793,-0.24163 z"
       style="fill:#000000;stroke-width:0.26458332" />
    <path
       id="path4721"
       d="m 107.14777,190.68147 c -0.24211,-1.89308 0.38758,-7.78545 1.40126,-13.11249 0.49233,-2.58728 0.67084,-3.10885 1.06406,-3.10885 0.25986,0 0.47094,0.0298 0.46906,0.0661 -0.002,0.0364 -0.23367,0.80055 -0.5151,1.69816 -0.67647,2.15762 -1.39114,7.02646 -1.75166,11.93364 -0.0991,1.34923 -0.28373,2.51712 -0.41024,2.5953 -0.1265,0.0782 -0.24232,0.0458 -0.25738,-0.0719 z"
       style="fill:#000000;stroke-width:0.26458332" />
    <path
       id="path4719"
       d="m 106.25337,185.50648 c 0.19728,-2.24462 0.28156,-2.57969 0.64889,-2.57969 0.30987,0 0.34512,1.08018 0.10145,3.10886 -0.11362,0.94587 -0.28683,1.38906 -0.54289,1.38906 -0.30593,0 -0.34461,-0.35768 -0.20745,-1.91823 z"
       style="fill:#000000;stroke-width:0.26458332" />
    <path
       id="path4717"
       d="m 82.651312,179.37273 c 0.08983,-0.96199 0.689436,-3.23394 1.379096,-5.22552 0.798182,-2.30496 1.229176,-3.93018 1.36382,-4.69747 0.120775,-0.68824 0.460486,-1.58861 0.602729,-2.07505 0.203728,-0.82174 -0.501467,-0.74634 -1.320132,-1.33962 -1.612445,-0.6771 -1.552826,-1.1299 0.108699,-0.65338 0.512581,0.14701 1.495182,1.29281 1.826902,0.98011 0.295082,-0.27817 -0.996013,-1.43905 -1.231881,-1.90283 -1.089718,-2.14271 -0.358015,-2.17331 0.839408,-0.13007 0.617937,1.05443 0.796779,1.37317 1.414203,1.25114 0.388744,-0.0768 1.208873,-0.58208 1.765141,-0.85135 1.01834,-0.65487 3.760431,-1.55017 4.204717,-2.67883 -1.257834,-0.0982 -3.18203,-0.12365 -4.284567,-0.13726 -1.729348,-0.0165 -2.12803,-0.0982 -2.1958,-0.44991 -0.123982,-0.64341 0.523636,-0.78056 4.486777,-0.95019 1.861795,-0.0797 3.294772,0.06 3.294772,0.06 0.855359,-2.24489 0.743424,-3.76746 0.656021,-6.29282 l -1.006054,0.16602 c -0.553328,0.0913 -2.121974,0.52424 -3.48588,0.96208 -3.547811,1.13889 -4.267047,1.02735 -4.267047,-0.66179 0,-0.71881 0.209061,-0.95813 1.653646,-1.89298 2.653162,-1.71696 3.433469,-2.14277 4.696354,-2.56277 1.955538,-0.65035 2.281061,-0.62885 3.15635,0.20841 0.985591,0.94277 1.073616,1.87809 0.19744,2.098 -0.597943,0.15007 -0.608529,0.20394 -0.382596,1.94691 0.713439,5.50384 -0.833178,8.38622 -5.852551,10.90719 -2.950716,1.482 -3.460769,1.96063 -3.658243,3.43291 l -0.144756,1.07923 0.815192,-0.16304 c 0.990311,-0.19806 1.739222,0.54611 2.878304,2.86007 0.408045,0.82891 0.89073,1.51352 1.147045,1.89273 0.256315,0.37922 2.004108,0.96604 3.356671,0.96187 1.346766,-0.004 1.845307,-0.21435 3.348755,-1.41192 1.244523,-0.99132 3.069823,-1.42894 3.500933,-0.83935 0.2551,0.34887 0.42406,0.36652 0.99931,0.10442 0.8949,-0.40775 0.9046,-1.27212 0.0363,-3.23542 -2.25824,-5.10627 -2.654189,-8.60952 -1.34999,-11.94404 1.08537,-2.775 2.31935,-4.89479 2.84938,-4.89479 0.84559,0 4.88681,5.54136 5.6793,7.78751 0.4343,1.23091 0.21794,1.52417 -1.48342,2.01071 -0.89691,0.25649 -0.98109,0.22091 -1.91035,-0.80758 -0.53465,-0.59175 -1.42762,-1.96324 -1.98438,-3.04776 -0.70829,-1.37971 -1.37449,-2.3094 -1.63823,-2.00341 -1.3589,1.57655 -1.34543,3.8993 -1.14519,5.20542 l 1.67932,0.4742 c 2.83729,0.80119 3.52477,1.09972 3.61533,1.56993 0.11915,0.61872 -1.14604,0.60151 -3.48634,-0.0474 l -1.80347,-0.50009 c 0.56463,1.58672 0.95063,3.16607 1.94563,4.66562 0.19183,0.20331 1.06482,0.0387 1.71139,0.0387 1.08488,0 1.48051,0.2949 0.88741,0.66146 -0.25591,0.15816 -2.34999,0.18913 -2.25235,0.65562 0.13387,0.6396 1.6756,0.0246 2.51693,0.006 1.21774,0 0.27064,1.00475 -1.16702,1.23804 -0.5223,0.0848 -0.94965,0.20309 -0.94965,0.26294 0,0.0599 0.17014,0.96701 0.37808,2.0159 0.71916,3.62758 0.76274,4.15604 0.34279,4.15604 -0.25602,0 -0.49767,-0.53577 -0.72517,-1.60778 -0.30704,-1.44685 -0.39673,-1.59081 -0.89605,-1.43819 -0.30517,0.0933 -1.38829,0.23888 -2.40694,0.32357 -1.587289,0.13197 -1.995607,0.27645 -2.855993,1.01059 -0.962488,0.82125 -1.949526,1.18264 -3.230096,1.18264 -0.722284,0 -1.135682,0.4565 -1.340647,1.48042 -0.148367,0.7412 -0.11784,0.76854 0.858327,0.76854 1.147138,0 1.469507,0.72901 0.38994,0.88182 -1.585502,0.22443 -1.891318,-0.0901 -1.891318,-1.9452 0,-1.26313 -0.09407,-1.71475 -0.357177,-1.71475 -1.018908,0 -2.49931,-1.56923 -3.224744,-3.41824 0,0 -0.431928,-1.33083 -0.868648,-1.84001 -0.894906,-1.0434 -1.830575,-0.98326 -2.64902,-0.0334 -0.471304,0.54697 -0.915111,2.05052 -0.915111,2.05052 -0.797655,2.34342 -1.381829,4.66155 -1.633553,6.48229 -0.27131,1.9624 -0.777151,1.57946 -0.588085,-0.44521 z"
       style="fill:#000000;stroke-width:0.26458332" />
    <path
       id="path4715"
       d="m 108.60624,161.53456 c 0.0767,-0.12406 -0.45829,-1.10633 -1.18881,-2.18281 -0.73052,-1.07649 -1.69699,-2.5228 -2.14771,-3.21402 -0.45073,-0.69122 -0.99597,-1.25677 -1.21166,-1.25677 -0.99611,0 0.52745,4.11845 2.19844,5.94274 0.82466,0.90032 2.01086,1.25918 2.34974,0.71086 z"
       style="fill:#b05900;fill-opacity:1;stroke-width:0.26458332" />
    <path
       id="path4713"
       d="m 94.078275,153.28899 c 0.436562,-0.26848 1.019712,-0.87196 1.295887,-1.34107 l 0.502137,-0.85292 -0.794639,0.15893 c -1.701808,0.34036 -6.714525,2.65734 -6.569081,3.03636 0.07796,0.20315 0.141738,0.5262 0.141738,0.71789 0,0.40159 4.076467,-0.8905 5.423958,-1.71919 z"
       style="fill:#b05900;fill-opacity:1;stroke-width:0.26458332" />
    <path
       id="path4711"
       d="m 135.89136,198.80276 c 16.29545,-1.81068 15.20462,-1.57919 15.20462,-3.22654 v -0.74318 h -4.48548 -4.48548 l -0.27554,-0.99219 c -0.15155,-0.5457 -0.27621,-1.19352 -0.27702,-1.43959 -0.002,-0.74392 -0.50336,-0.81174 -0.68386,-0.0926 -0.25857,1.03023 -0.90512,0.84896 -0.90512,-0.25376 0,-0.61515 -0.12373,-0.92604 -0.36856,-0.92604 -0.46167,0 -0.68977,0.57588 -0.68977,1.74143 0,0.62752 -0.1215,0.9044 -0.39688,0.9044 -0.26458,0 -0.39687,-0.26458 -0.39687,-0.79375 0,-1.0578 -0.47326,-1.02036 -0.57855,0.0458 -0.1416,1.43379 -0.81997,1.29313 -0.70548,-0.14629 0.13138,-1.65189 -0.14878,-1.54944 -0.45362,0.16589 -0.16517,0.92941 -0.38649,1.41427 -0.66957,1.46687 -0.36239,0.0673 -0.39301,-0.10277 -0.21421,-1.18985 0.3138,-1.90776 0.30113,-1.97539 -0.35243,-1.88215 -0.35078,0.05 -0.62626,0.30049 -0.67507,0.61372 -0.3749,2.40589 -0.65565,3.30729 -1.03008,3.30729 -0.40163,0 -0.35625,-1.48112 0.0922,-3.0097 0.0886,-0.30212 0.039,-0.43027 -0.12701,-0.32769 -0.14991,0.0926 -0.35105,0.55404 -0.44696,1.02532 -0.70584,3.46812 -1.36642,3.99106 -1.08241,0.85686 0.20567,-2.26964 -0.22285,-2.78722 -0.49288,-0.59531 -0.2842,2.30693 -0.44141,2.8773 -0.76253,2.76637 -0.20482,-0.0708 -0.28153,-0.75622 -0.23104,-2.06453 0.0908,-2.35313 -0.24744,-1.99931 -0.72022,0.75337 -0.24031,1.39914 -0.43871,1.91823 -0.73316,1.91823 -0.30507,0 -0.3623,-0.17774 -0.23425,-0.72761 0.43178,-1.85409 0.50569,-4.10708 0.13064,-3.98207 -0.34274,0.11425 -1.2219,4.85943 -1.277,6.89249 -0.0248,0.91361 -0.52024,0.91749 8.32357,-0.0652 z"
       style="fill:#585858;fill-opacity:1;stroke-width:0.26458332" />
    <path
       id="path4709"
       d="m 155.78911,193.22249 c 7.13383,-0.71015 8.81523,-1.0233 9.0746,-1.69007 0.11464,-0.29471 0.41003,-1.72646 0.65642,-3.18167 0.2464,-1.45521 0.55215,-3.06627 0.67945,-3.58014 0.1273,-0.51387 0.35596,-1.88309 0.50812,-3.04271 0.15217,-1.15962 0.38328,-2.64418 0.5136,-3.29902 0.39493,-1.98459 0.90136,-6.72581 1.22358,-11.45501 l 0.19459,-2.85604 -0.90039,-0.94243 c -2.27529,-2.38153 -7.85831,-6.15345 -12.71405,-8.58968 -4.20341,-2.10895 -12.24869,-5.26101 -13.42813,-5.26101 -0.30543,0 0.37308,3.98665 0.99556,5.84956 0.32134,0.96168 0.93734,2.30527 1.36889,2.98575 0.43155,0.68048 0.78463,1.40753 0.78463,1.61567 0,1.05476 0.9014,2.78894 2.09133,4.02347 1.55335,1.61158 1.6684,2.05636 1.55996,6.03076 l -0.0794,2.91041 -1.16095,0.0831 c -2.55304,0.18284 -3.71729,-1.22318 -3.72803,-4.5022 l -0.006,-1.77322 -1.17216,-0.80646 c -1.51866,-1.04488 -1.49568,-1.05204 -2.25594,0.70303 -0.35749,0.82526 -1.05751,2.09292 -1.5556,2.81702 l -0.90564,1.31656 0.36498,1.87481 c 0.84543,4.3428 0.2906,7.54255 -1.34987,7.78475 -2.06214,0.30445 -3.17993,-0.73754 -3.17993,-2.96432 0,-0.70555 -0.13327,-1.22964 -0.33073,-1.30066 -0.408,-0.14672 -2.11178,0.0805 -2.37732,0.31704 -0.39353,0.35058 -1.22981,6.33114 -1.68149,12.02494 -0.17643,2.22412 -0.16012,2.33724 0.31581,2.19002 0.82173,-0.25419 9.89405,-0.64734 11.6586,-0.50523 l 1.63175,0.13143 0.30339,1.74219 c 0.16686,0.95821 0.36785,1.8465 0.44664,1.97398 0.18851,0.30502 6.08625,0.009 12.45356,-0.62466 z"
       style="fill:#6e6e6e;fill-opacity:1;stroke-width:0.26458332" />
    <path
       id="path4705"
       d="m 136.68294,178.85355 c 0.56922,-0.41622 0.63787,-2.67874 0.13325,-4.39166 -0.34349,-1.166 -0.37008,-15.61217 -0.0287,-15.61217 0.45713,0 0.62904,1.71731 0.59388,5.93258 l -0.0351,4.21278 0.64904,-0.87972 c 0.67719,-0.91787 1.4553,-3.08044 2.00107,-5.56147 0.73851,-3.3572 1.10566,-3.67485 1.31008,-1.13347 0.12554,1.56079 0.20313,1.71639 1.52135,3.05103 1.33419,1.35081 1.38912,1.46352 1.39054,2.85326 0.003,2.75243 0.80666,4.22501 2.30636,4.22501 0.57443,0 0.60258,-0.0944 0.60258,-2.01983 0,-2.72757 -0.40018,-3.88182 -1.92386,-5.54897 -1.01392,-1.10939 -1.45679,-1.90349 -2.07466,-3.72009 -0.43206,-1.27029 -1.00785,-2.673 -1.27953,-3.11713 -0.27981,-0.45743 -0.57316,-1.61046 -0.67662,-2.65961 -0.37893,-3.84214 -2.96684,-12.17041 -4.04915,-13.03073 -0.22883,-0.1819 -1.03196,-0.33072 -1.78472,-0.33072 -1.28341,0 -1.41132,0.0618 -2.05357,0.99218 -1.13489,1.64406 -1.99554,3.88722 -2.45502,6.39869 l -0.43504,2.37788 -1.73558,1.13077 c -0.95458,0.62193 -2.14448,1.54935 -2.64423,2.06094 -1.00963,1.03353 -3.22968,4.30985 -3.22968,4.7663 0,0.16084 -0.32743,0.4074 -0.72761,0.54793 -3.50902,1.23218 -4.6031,2.5034 -2.86706,3.33126 1.45413,0.69343 4.04208,0.14176 5.67905,-1.2106 2.87068,-2.37155 5.81559,-2.10142 6.25683,0.57392 0.1019,0.61789 0.88619,4.27002 1.74287,8.11584 0.85667,3.84583 1.55758,7.14206 1.55758,7.32497 0,1.47016 1.13921,2.13723 2.25571,1.32083 z"
       style="fill:#ffe0bd;fill-opacity:1;stroke-width:0.26458332" />
    <path
       id="path4703"
       d="m 78.032307,174.65603 c 0.48805,-1.34467 1.160658,-3.15923 1.494684,-4.03235 0.624096,-1.63136 0.625779,-1.98438 0.0095,-1.98438 -0.369594,0 -0.936313,1.30505 -0.936313,2.15615 0,0.3133 -0.190611,0.48969 -0.529167,0.48969 -0.657487,0 -0.65814,0.0186 0.13498,-3.83646 0.812239,-3.94797 0.821743,-4.84059 0.06346,-5.95975 -0.967679,-1.4282 -1.256771,-1.31362 -1.256771,0.49813 0,1.48333 -0.289782,2.22655 -0.644409,1.65274 -0.08349,-0.13509 -0.229385,-1.33853 -0.324201,-2.67431 -0.120812,-1.70202 -0.282184,-2.47082 -0.539343,-2.5695 -0.629743,-0.24165 -0.706689,0.11554 -0.64969,3.01584 0.04668,2.37545 0.18723,3.20825 0.894054,5.2977 0.810956,2.39727 0.828199,2.5402 0.521959,4.32605 -0.560088,3.26619 -0.288933,6.07556 0.585663,6.06784 0.158541,-0.001 0.687573,-1.10272 1.175624,-2.44739 z"
       style="fill:#ffe0bd;fill-opacity:1;stroke-width:0.26458332" />
    <path
       id="path4701"
       d="m 132.57515,174.85154 c 0.34162,-0.19504 -0.0646,-3.03724 -0.43405,-3.03724 -1.00707,0 -2.18792,2.5815 -1.49693,3.27249 0.15904,0.15905 1.53371,-0.008 1.93098,-0.23525 z"
       style="fill:#ffe0bd;fill-opacity:1;stroke-width:0.26458332" />
    <path
       id="path4699"
       d="m 131.13344,170.63218 c 0.4261,-1.01981 0.52058,-3.72894 0.13828,-3.96521 -0.13481,-0.0833 -0.31947,0.53474 -0.41037,1.37345 -0.0909,0.83871 -0.2292,1.97141 -0.30733,2.51711 -0.17781,1.24199 0.0779,1.27493 0.57942,0.0746 z"
       style="fill:#ffe0bd;fill-opacity:1;stroke-width:0.26458332" />
    <path
       id="path4697"
       d="m 80.630234,162.55969 c -0.144229,-1.86481 -0.966734,-5.70553 -1.35714,-6.33722 -0.09625,-0.15574 -0.299672,-0.28317 -0.452043,-0.28317 -0.152369,0 -0.51117,-0.29765 -0.797338,-0.66146 -0.286168,-0.3638 -0.753523,-0.66145 -1.038569,-0.66145 -0.285049,0 -0.586801,-0.1786 -0.670563,-0.39688 -0.08376,-0.21828 -0.379089,-0.39687 -0.656283,-0.39687 -0.443468,0 -0.483367,0.13502 -0.332293,1.12447 0.09443,0.61847 0.290793,1.36261 0.436356,1.65365 0.568934,1.13752 2.459094,3.55686 2.784579,3.56416 0.571262,0.0128 1.36403,2.14073 1.370316,3.67813 0.0052,1.28263 0.04786,1.38656 0.436357,1.06414 0.355515,-0.29505 0.403722,-0.70415 0.276621,-2.3475 z"
       style="fill:#ffe0bd;fill-opacity:1;stroke-width:0.26458332" />
    <path
       id="path4695"
       d="m 113.26057,160.99946 c 0,-0.56389 0.0744,-1.39733 0.16536,-1.85209 0.25804,-1.29021 -0.32392,-0.99201 -0.80195,0.41094 -0.58604,1.71993 -0.55353,2.46641 0.10742,2.46641 0.43813,0 0.52917,-0.17639 0.52917,-1.02526 z"
       style="fill:#b05900;fill-opacity:1;stroke-width:0.26458332" />
    <path
       id="path4693"
       d="m 81.670587,156.0358 c 0.352356,-0.92263 0.614129,-1.21707 1.18324,-1.33089 0.668615,-0.13372 0.720027,-0.22811 0.604303,-1.10953 -0.111545,-0.84962 -0.449461,-2.45591 -0.796991,-3.78854 -0.08093,-0.31033 0.48469,-0.88796 1.879751,-1.91966 1.999752,-1.47888 3.221275,-2.86822 3.84438,-4.37253 0.530825,-1.28153 1.426797,-1.11766 1.200864,0.21962 -0.16071,0.95123 -0.123902,1.03354 0.516993,1.15606 0.767861,0.14678 1.242854,-0.51487 1.833068,-2.55342 0.570421,-1.97018 1.469676,-1.28356 1.485035,1.13389 0.0034,0.52797 0.22107,0.25036 0.907828,-1.15755 1.023085,-2.09741 2.67657,-3.92205 3.032408,-3.34629 0.119573,0.19348 0.366673,1.61128 0.549111,3.15068 l 0.331708,2.79892 0.400386,-0.90478 c 0.220213,-0.49763 0.475956,-1.3215 0.568317,-1.83082 0.222083,-1.22466 0.865672,-1.21008 1.158062,0.0263 0.19201,0.81189 0.31638,0.93484 0.84365,0.83405 0.50061,-0.0957 0.65164,-0.33956 0.79265,-1.27985 0.0958,-0.63889 0.36876,-1.35618 0.60656,-1.59398 0.4001,-0.4001 0.4587,-0.35629 0.7853,0.58708 0.71634,2.06909 2.97534,3.55897 3.33145,2.1972 0.0934,-0.35711 0.3146,-0.51988 0.62617,-0.46074 0.60751,0.1153 0.79543,1.99458 0.34929,3.49286 -0.21796,0.73199 -0.22373,1.10613 -0.0202,1.30969 0.20355,0.20354 0.28495,0.19599 0.28495,-0.0265 0,-0.17127 0.30782,-0.51309 0.68404,-0.7596 0.77476,-0.50764 1.15642,-0.21286 1.16399,0.89902 0.002,0.34634 0.16719,0.59531 0.39413,0.59531 0.21455,0 0.56758,0.34324 0.78452,0.76275 0.21693,0.41951 0.68098,0.83467 1.0312,0.92257 0.35022,0.0879 1.06844,0.63763 1.59605,1.22162 1.13789,1.25952 1.22118,1.28199 1.23864,0.33421 0.007,-0.40018 0.42958,-1.91823 0.93824,-3.37344 1.22834,-3.5141 1.27716,-3.82427 0.90905,-5.7752 -0.30765,-1.63048 -0.34615,-1.68702 -1.46231,-2.1473 -1.35723,-0.5597 -1.74437,-1.38793 -0.7638,-1.63404 0.35418,-0.0889 0.77299,-0.40273 0.9307,-0.69741 0.27949,-0.52223 0.23844,-0.53103 -1.62153,-0.34775 -1.04956,0.10342 -2.08835,0.25713 -2.30843,0.34158 -0.3376,0.12955 -0.37206,-0.0491 -0.22047,-1.14316 0.33771,-2.43749 0.38079,-2.30952 -0.85069,-2.5267 -1.45535,-0.25666 -1.55073,-0.32628 -1.73943,-1.26979 -0.087,-0.43504 -0.40004,-1.03283 -0.69563,-1.32842 -0.31137,-0.31137 -0.53743,-0.88596 -0.53743,-1.36602 0,-0.81822 -0.0137,-0.82676 -1.09202,-0.68212 -0.60726,0.0814 -1.59544,0.508 -2.22607,0.96088 -1.29467,0.92977 -1.692,1.00958 -1.74929,0.35139 -0.0222,-0.25466 -0.0528,-0.62073 -0.0682,-0.81348 -0.0548,-0.68995 -1.09161,-0.97246 -3.568793,-0.97246 h -2.486615 l -0.851828,-1.53745 c -0.815145,-1.47123 -0.872011,-1.51726 -1.320451,-1.06882 -1.004655,1.00465 -1.630207,4.02207 -0.92428,4.45835 0.62347,0.38533 0.207262,0.93286 -0.926041,1.21823 -1.066258,0.26849 -1.190625,0.37943 -1.190625,1.06214 0,0.74986 -0.02442,0.76234 -1.490658,0.76234 -2.124167,0 -3.492156,0.46984 -3.950888,1.35693 -0.485325,0.93851 -0.48374,1.81197 0.004,2.18578 0.328449,0.25174 0.287719,0.49239 -0.284826,1.68281 -0.617506,1.28391 -0.738196,1.38907 -1.594234,1.38907 -0.67628,0 -1.140301,-0.21416 -1.719903,-0.79375 -1.069509,-1.06951 -1.28221,-1.00368 -1.28221,0.39687 0,1.07093 0.06206,1.19063 0.61736,1.19063 0.993463,0 1.017656,0.26989 0.160356,1.78894 -0.91276,1.61732 -2.107679,2.88874 -3.052567,3.24798 -0.895874,0.34061 -0.825211,1.1952 0.126251,1.52688 1.069986,0.373 0.85465,1.50685 -0.39978,2.10505 -0.981718,0.46815 -1.192524,1.12073 -0.362037,1.12073 0.291042,0 0.529167,0.12381 0.529167,0.27512 0,0.15132 -0.238125,0.74189 -0.529167,1.31238 -0.674214,1.32157 -0.667811,1.36779 0.160689,1.15985 0.763294,-0.19157 1.151435,0.18525 1.158177,1.12439 0.0024,0.32893 0.212878,0.61907 0.504507,0.69533 0.345843,0.0904 0.557983,0.47136 0.686655,1.23297 0.227266,1.34517 0.665745,1.12614 1.354159,-0.67645 z"
       style="fill:#b05900;fill-opacity:1;stroke-width:0.26458332" />
    <path
       id="path4691"
       d="m 131.87741,142.51169 c 0.28205,-1.2656 0.83754,-1.69211 2.71699,-2.08607 2.2672,-0.47525 2.2853,-0.50569 0.59851,-1.00661 -2.21202,-0.6569 -4.13013,-0.11168 -5.38221,1.52987 -0.93462,1.22536 -0.86503,1.65824 0.31705,1.9722 1.49169,0.39618 1.57444,0.37682 1.74966,-0.40939 z"
       style="fill:#d7e8e8;fill-opacity:1;stroke-width:0.26458332" />
    <path
       id="path4689"
       d="m 127.90262,141.79897 c 0.0806,-0.2101 1.04586,-1.12007 2.14497,-2.02217 1.09912,-0.9021 1.99839,-1.75901 1.99839,-1.90426 0,-0.41186 -4.20051,-0.0501 -5.49443,0.47323 -1.15627,0.46763 -3.3271,2.63582 -3.15662,3.15277 0.21083,0.63934 4.27373,0.91012 4.50769,0.30043 z"
       style="fill:#037290;fill-opacity:1;stroke-width:0.26458332" />
    <path
       id="path4687"
       d="m 118.28245,132.06065 c -0.003,-0.1819 0.1984,-2.56033 0.44726,-5.28538 0.24885,-2.72506 0.38372,-5.02339 0.2997,-5.10741 -0.17774,-0.17774 -6.16581,-0.31936 -15.49243,-1.90813 -9.326621,-1.58877 -14.498052,-4.73186 -19.14137,-9.32877 -2.802171,-2.77417 -3.521715,-4.15925 -4.810744,-9.26042 -0.849524,-3.361878 -0.8348,-10.18716 0.02997,-13.890623 2.556481,-10.948429 9.845284,-21.595157 19.448415,-28.408233 5.851639,-4.151529 19.003999,-6.919675 26.654749,-5.609965 0.78826,0.13494 2.26663,0.388072 3.28527,0.562516 6.73384,1.153179 17.819,6.705678 21.72366,10.881269 1.76009,1.882218 5.45953,8.566633 6.63638,11.99108 2.42222,7.048298 2.08546,16.941353 -0.78192,22.970363 -5.71178,12.009733 -11.86394,16.647563 -27.41113,20.664013 -2.52753,0.65296 -4.62264,1.22266 -4.65579,1.266 -0.0332,0.0433 -1.23921,2.40051 -2.68011,5.23817 -1.44091,2.83765 -2.73908,5.24684 -2.88483,5.35376 -0.39841,0.29224 -0.66126,0.24171 -0.66708,-0.12824 z"
       style="fill:#000000;stroke-width:0.26458332" />
    <path
       id="path4685"
       d="m 122.24952,123.45994 c 1.71421,-3.54279 1.79098,-3.61281 4.296,-3.91819 6.73328,-1.32221 14.9238,-3.87993 18.8079,-7.20416 4.24157,-3.63016 8.03821,-7.33986 9.8416,-12.11234 2.29891,-6.083836 3.06196,-12.731296 2.13222,-18.401959 -0.41839,-2.551833 -2.39083,-8.675436 -3.00753,-9.876466 -2.81794,-5.488019 -8.781,-10.997811 -15.30314,-13.748267 -5.23232,-2.206531 -9.93668,-3.287654 -17.15705,-3.94292 -0.98222,-0.08914 -3.92821,0.225054 -12.10294,1.418455 -8.17472,1.193399 -17.074657,8.113062 -23.214583,18.376657 -4.654428,7.780412 -6.428049,13.728595 -6.429893,21.563542 -0.0013,5.400458 0.778047,8.965178 3.867665,12.750848 2.530323,3.10038 3.529537,4.19786 10.495381,7.49399 8.9184,4.22005 17.28439,3.95016 25.53229,4.22916 l -0.004,1.45521 c -0.002,0.80036 -0.0986,2.64583 -0.2141,4.10104 l -0.20993,2.64583 0.55059,-0.79375 c 0.30283,-0.43656 1.25669,-2.25305 2.11969,-4.03664 z"
       style="fill:#a6fee6;fill-opacity:1;stroke-width:0.26458332" />
    <path
       id="path4683"
       d="m 103.5095,110.48789 c -0.21927,-0.0731 -0.30147,-2.3817 -0.29722,-8.34721 0.007,-9.472209 -0.34089,-8.226915 3.16912,-11.351951 2.60865,-2.322539 6.07372,-5.665018 6.62803,-6.393543 0.37165,-0.488445 0.31197,-0.498819 -1.99799,-0.347353 -1.3096,0.08587 -3.54525,0.461264 -4.96811,0.83421 -1.42287,0.372946 -2.70279,0.678082 -2.84427,0.678082 -0.48246,0 -0.33184,-16.179921 0.15712,-16.878004 0.66829,-0.954119 2.17708,-1.548891 5.14189,-2.026945 1.52797,-0.246375 4.32593,-0.743742 6.2177,-1.10526 8.21914,-1.570681 14.30319,-2.473453 16.69485,-2.477239 l 1.34901,-0.0021 -0.23957,1.521354 c -0.20545,1.304729 -0.12252,16.491077 0.10853,19.873672 l 0.0788,1.154398 -5.23857,2.642897 c -3.03352,1.530432 -5.19132,2.770751 -5.12631,2.946643 0.0618,0.167058 0.23051,0.279215 0.37502,0.249235 0.67992,-0.141055 9.17686,-0.604629 11.10235,-0.605719 l 2.17082,-0.0013 0.14459,0.859896 c 0.38222,2.273245 0.92248,7.851209 1.08496,11.201707 l 0.18074,3.72722 -5.70378,0.1716 c -8.9897,0.27045 -18.88767,1.50242 -25.49998,3.17391 -1.31157,0.33154 -2.52107,0.55734 -2.68778,0.50177 z"
       style="fill:#000000;stroke-width:0.26458332" />
    <path
       id="path4681"
       d="m 107.4021,108.41773 c 0.525,-0.10758 0.5978,-0.24116 0.45951,-0.84324 -0.29037,-1.2643 -0.6673,-5.67661 -0.67702,-7.925302 -0.008,-1.768084 0.066,-2.182813 0.38743,-2.182813 0.32673,0 0.40273,0.514467 0.42995,2.910415 0.0182,1.60073 0.0544,2.99972 0.0805,3.10886 0.0261,0.10914 0.14035,1.12037 0.25392,2.24719 0.11356,1.12682 0.29487,2.10339 0.40292,2.17016 0.10804,0.0668 1.73507,-0.0539 3.61561,-0.26821 5.01401,-0.57136 13.87979,-1.41473 15.01433,-1.42825 l 0.74724,-0.009 -0.0858,-4.96094 c -0.0546,-3.158564 0.0103,-4.985279 0.17881,-5.027935 0.16563,-0.04194 0.31405,1.739067 0.39687,4.762505 0.097,3.54066 0.21656,4.81317 0.44804,4.76834 0.17367,-0.0336 1.82664,-0.14193 3.67328,-0.24065 l 3.35752,-0.17949 -0.17124,-2.00831 c -0.0942,-1.10458 -0.28786,-3.734723 -0.43037,-5.844775 -0.14252,-2.110052 -0.32677,-4.233682 -0.40945,-4.719177 l -0.15032,-0.882719 -4.4155,0.172829 c -2.42853,0.09505 -5.58898,0.283919 -7.02322,0.419698 -5.73475,0.542901 -6.58418,0.130977 -3.30808,-1.604227 0.96263,-0.509865 2.86609,-1.58001 4.2299,-2.378096 2.76773,-1.619655 3.31183,-1.926979 5.31622,-3.002772 l 1.39676,-0.749671 V 74.395319 64.068397 l -1.32292,0.154848 c -0.7276,0.08517 -2.03729,0.267454 -2.91041,0.405083 -0.87313,0.137629 -2.89719,0.442533 -4.49792,0.677563 -2.89846,0.425572 -3.53065,0.533833 -7.80521,1.33663 -3.7604,0.706233 -9.52574,2.134121 -10.40968,2.578136 -0.45957,0.230849 -0.48254,0.663655 -0.39687,7.476654 0.05,3.977394 0.16382,7.304421 0.25291,7.393398 0.14058,0.140406 4.95139,-0.999892 7.24635,-1.71759 0.98179,-0.307034 5.41305,-0.769321 5.83228,-0.608447 0.5954,0.228473 0.0654,1.405342 -0.90164,2.001962 -1.34407,0.829265 -7.73016,6.376122 -9.95772,8.649126 l -1.85208,1.88986 -0.0437,6.90902 c -0.024,3.79996 0.0183,7.07038 0.094,7.2676 0.13254,0.3454 1.0523,0.32532 2.95478,-0.0645 z"
       style="fill:#fefe4e;fill-opacity:1;stroke-width:0.26458332" />
    <path
       id="path4679"
       d="m 106.01248,107.05752 c -0.59181,-1.95728 -0.96744,-11.443228 -0.45314,-11.443228 0.43442,0 0.54016,0.770411 0.53792,3.919246 -0.001,1.720052 0.0577,3.595712 0.13102,4.168122 0.37651,2.94091 0.41791,3.81888 0.18006,3.81888 -0.14072,0 -0.31886,-0.20836 -0.39586,-0.46302 z"
       style="fill:#000000;stroke-width:0.26458332" />
    <path
       id="path4677"
       d="m 121.99182,101.43513 c 0,-3.58658 0.0606,-4.233338 0.39687,-4.233338 0.33624,0 0.39688,0.646758 0.39688,4.233338 0,3.58657 -0.0606,4.23333 -0.39688,4.23333 -0.33624,0 -0.39687,-0.64676 -0.39687,-4.23333 z"
       style="fill:#000000;stroke-width:0.26458332" />
    <path
       id="path4675"
       d="m 109.73279,105.22749 c -0.097,-0.097 -0.17639,-1.70062 -0.17639,-3.56357 0,-2.902131 0.0568,-3.365377 0.39687,-3.234893 0.32439,0.124479 0.39688,0.775404 0.39688,3.563573 0,3.1192 -0.11748,3.73477 -0.61736,3.23489 z"
       style="fill:#000000;stroke-width:0.26458332" />
    <path
       id="path4673"
       d="m 120.05244,104.80856 c -0.0796,-0.32742 -0.21636,-1.78593 -0.30401,-3.24114 -0.0876,-1.45521 -0.22135,-3.151852 -0.29712,-3.770316 -0.10676,-0.871489 -0.051,-1.124479 0.2478,-1.124479 0.39513,0 0.40599,0.08165 0.85367,6.416145 0.1024,1.44885 0.0665,2.31511 -0.096,2.31511 -0.14281,0 -0.32475,-0.2679 -0.40431,-0.59532 z"
       style="fill:#000000;stroke-width:0.26458332" />
    <path
       id="path4671"
       d="m 126.39191,104.80856 c -0.0877,-0.32742 -0.16116,-2.17289 -0.16315,-4.10104 -0.003,-2.941419 0.0603,-3.505728 0.39327,-3.505728 0.3357,0 0.39687,0.63206 0.39687,4.101038 0,3.76536 -0.2231,5.01282 -0.62699,3.50573 z"
       style="fill:#000000;stroke-width:0.26458332" />
    <path
       id="path4669"
       d="m 115.70474,104.80856 c -0.64426,-0.79967 -0.62436,-9.375968 0.0201,-8.657439 0.12252,0.13661 0.43671,8.988169 0.31903,8.988169 -0.04,0 -0.19256,-0.14883 -0.33911,-0.33073 z"
       style="fill:#000000;stroke-width:0.26458332" />
    <path
       id="path4667"
       d="m 124.37307,101.45677 c 0,-2.025395 -0.0723,-3.870864 -0.1606,-4.101046 -0.10539,-0.274635 -0.0144,-0.418515 0.26458,-0.418515 0.37223,0 0.42518,0.510712 0.42518,4.101041 0,2.55764 -0.0996,4.10104 -0.26458,4.10104 -0.16372,0 -0.26458,-1.4039 -0.26458,-3.68252 z"
       style="fill:#000000;stroke-width:0.26458332" />
    <path
       id="path4665"
       d="m 110.87932,101.832 c 0,-2.528242 0.0671,-3.042708 0.39687,-3.042708 0.32977,0 0.39688,0.514466 0.39688,3.042708 0,2.52824 -0.0671,3.04271 -0.39688,3.04271 -0.32977,0 -0.39687,-0.51447 -0.39687,-3.04271 z"
       style="fill:#000000;stroke-width:0.26458332" />
    <path
       id="path4663"
       d="m 113.76657,104.15234 c -0.30768,-0.80928 -0.82971,-7.699168 -0.61024,-8.054271 0.34646,-0.560583 0.63383,0.210974 0.63864,1.714651 0.005,1.478174 0.26037,3.86619 0.66393,6.20209 0.18342,1.06168 -0.30414,1.15854 -0.69233,0.13753 z"
       style="fill:#000000;stroke-width:0.26458332" />
    <path
       id="path4661"
       d="m 117.49253,103.35335 c -7.9e-4,-0.83674 -0.0782,-2.68221 -0.1722,-4.101037 -0.15167,-2.290403 -0.12184,-2.579688 0.26596,-2.579688 0.38506,0 0.43678,0.436028 0.43678,3.682525 0,2.02539 0.0723,3.87086 0.1606,4.10104 0.10538,0.27464 0.0144,0.41852 -0.26459,0.41852 -0.34106,0 -0.42545,-0.30098 -0.42655,-1.52136 z"
       style="fill:#000000;stroke-width:0.26458332" />
    <path
       id="path4659"
       d="m 130.20627,104.49275 c -0.37914,-0.45684 -0.75451,-3.71222 -0.78732,-6.827937 -0.0149,-1.419469 0.0626,-1.785938 0.37807,-1.785938 0.23216,0 0.39688,0.240872 0.39688,0.580348 0,0.319191 0.12912,2.22377 0.28694,4.232407 0.31421,3.99902 0.28022,4.46959 -0.27457,3.80112 z"
       style="fill:#000000;stroke-width:0.26458332" />
    <path
       id="path4657"
       d="m 131.9358,104.6459 c -0.22544,-0.36477 -0.30774,-8.4367 -0.0882,-8.656498 0.35373,-0.35424 0.39124,-0.04095 0.53318,4.453538 0.1247,3.94873 0.0184,4.95268 -0.44493,4.20296 z"
       style="fill:#000000;stroke-width:0.26458332" />
    <path
       id="path4655"
       d="m 133.54133,100.9721 c -0.30382,-3.216956 -0.22114,-5.093225 0.22444,-5.093225 0.32599,0 0.39688,0.466696 0.39688,2.612761 0,1.437018 0.0744,2.984834 0.16536,3.439584 0.12564,0.62816 0.0713,0.82682 -0.22632,0.82682 -0.29052,0 -0.43525,-0.46129 -0.56036,-1.78594 z"
       style="fill:#000000;stroke-width:0.26458332" />
    <path
       id="path4653"
       d="m 122.42622,85.097104 c -0.25331,-1.532548 -0.19937,-5.837488 0.0753,-6.007229 0.26139,-0.161549 0.45575,1.288272 0.64569,4.816604 0.089,1.653789 0.0358,2.182813 -0.21973,2.182813 -0.18548,0 -0.41104,-0.446484 -0.50124,-0.992188 z"
       style="fill:#000000;stroke-width:0.26458332" />
    <path
       id="path4651"
       d="m 124.01481,84.303354 c -0.0854,-0.400182 -0.23691,-2.364713 -0.33658,-4.365624 -0.15721,-3.155839 -0.128,-3.638021 0.22032,-3.638021 0.33315,0 0.42734,0.642278 0.55289,3.770312 0.0832,2.073672 0.2326,4.038203 0.33193,4.365625 0.13136,0.433044 0.0724,0.595313 -0.21631,0.595313 -0.21892,0 -0.46655,-0.326269 -0.55225,-0.727605 z"
       style="fill:#000000;stroke-width:0.26458332" />
    <path
       id="path4649"
       d="m 127.1647,83.906479 c -0.52928,-3.187919 -0.7264,-13.993534 -0.26372,-14.456213 0.29202,-0.292014 0.35554,0.479879 0.52041,6.323615 0.0964,3.417903 0.26542,6.839447 0.37553,7.603432 0.22775,1.580208 -0.37409,2.083945 -0.63222,0.529166 z"
       style="fill:#000000;stroke-width:0.26458332" />
    <path
       id="path4647"
       d="m 125.24921,83.377313 c -0.11739,-0.181901 -0.25551,-2.801276 -0.30694,-5.820834 -0.0823,-4.833438 -0.0442,-5.490104 0.31852,-5.490104 0.35677,0 0.4081,0.558816 0.3828,4.167188 -0.0161,2.291953 0.0604,4.911328 0.16986,5.820833 0.19312,1.604209 -0.036,2.141461 -0.56424,1.322917 z"
       style="fill:#000000;stroke-width:0.26458332" />
    <path
       id="path4634"
       d="m 128.46037,82.312436 c -0.25416,-0.662331 0.008,-11.569685 0.27832,-11.569643 0.16644,2.6e-5 0.29096,2.208353 0.3357,5.953478 0.0481,4.027284 -0.0188,5.953438 -0.20674,5.953438 -0.15282,0 -0.3361,-0.151773 -0.40728,-0.337273 z"
       style="fill:#000000;stroke-width:0.26458332" />
  </g>
</svg>
