<?xml version="1.0" encoding="UTF-8"?>
<!DOCTYPE svg PUBLIC "-//W3C//DTD SVG 1.1//EN" "http://www.w3.org/Graphics/SVG/1.1/DTD/svg11.dtd">
<svg version="1.1" xmlns="http://www.w3.org/2000/svg" xmlns:xlink="http://www.w3.org/1999/xlink" x="0" y="0" width="536" height="478" viewBox="0, 0, 536, 478">
  <defs>
    <linearGradient id="Gradient_1" gradientUnits="userSpaceOnUse" x1="336.423" y1="358.809" x2="276.638" y2="344.099">
      <stop offset="0" stop-color="#FADCB8"/>
      <stop offset="0.994" stop-color="#F4BE8C"/>
      <stop offset="1" stop-color="#F4BE8C"/>
    </linearGradient>
    <linearGradient id="Gradient_2" gradientUnits="userSpaceOnUse" x1="242.988" y1="373.542" x2="232.573" y2="308.577">
      <stop offset="0" stop-color="#4C4D4C"/>
      <stop offset="1" stop-color="#767776"/>
    </linearGradient>
    <linearGradient id="Gradient_3" gradientUnits="userSpaceOnUse" x1="149.178" y1="419.288" x2="149.178" y2="309.254">
      <stop offset="0" stop-color="#4C4D4C"/>
      <stop offset="1" stop-color="#767776"/>
    </linearGradient>
    <linearGradient id="Gradient_4" gradientUnits="userSpaceOnUse" x1="157.757" y1="309.091" x2="158.963" y2="270.536">
      <stop offset="0" stop-color="#FADCB8"/>
      <stop offset="0.994" stop-color="#F4BE8C"/>
      <stop offset="1" stop-color="#F4BE8C"/>
    </linearGradient>
    <linearGradient id="Gradient_5" gradientUnits="userSpaceOnUse" x1="61.089" y1="207.652" x2="102.455" y2="208.314">
      <stop offset="0" stop-color="#FADCB8"/>
      <stop offset="0.994" stop-color="#F4BE8C"/>
      <stop offset="1" stop-color="#F4BE8C"/>
    </linearGradient>
    <radialGradient id="Gradient_6" gradientUnits="userSpaceOnUse" cx="110.404" cy="225.891" r="19.475">
      <stop offset="0" stop-color="#EDA09A"/>
      <stop offset="1" stop-color="#F9D5AF"/>
    </radialGradient>
    <radialGradient id="Gradient_7" gradientUnits="userSpaceOnUse" cx="225.416" cy="227.42" r="19.473">
      <stop offset="0" stop-color="#EDA09A"/>
      <stop offset="1" stop-color="#F8D4AD"/>
    </radialGradient>
    <linearGradient id="Gradient_8" gradientUnits="userSpaceOnUse" x1="270.162" y1="397.097" x2="213.462" y2="373.114">
      <stop offset="0" stop-color="#FADCB8"/>
      <stop offset="0.994" stop-color="#F4BE8C"/>
      <stop offset="1" stop-color="#F4BE8C"/>
    </linearGradient>
    <linearGradient id="Gradient_9" gradientUnits="userSpaceOnUse" x1="165.957" y1="396.225" x2="165.957" y2="321.654">
      <stop offset="0" stop-color="#4C4D4C"/>
      <stop offset="1" stop-color="#767776"/>
    </linearGradient>
  </defs>
  <g id="Layer_1">
    <path d="M289.181,340.245 C289.181,340.245 304.151,329.81 317.956,336.311 C331.769,342.828 314.364,341.484 314.364,341.484 C314.364,341.484 344.993,348.632 334.039,355.868 C334.039,355.868 339.776,359.898 332.325,362.593 C332.325,362.593 336.778,365.791 328.644,368.374 C328.644,368.374 333.987,375.536 325.044,373.54 C316.183,371.58 305.079,361.012 288.58,362.985 C275.302,364.552 277.552,361.309 277.552,361.309 L279.667,342.62 C279.667,342.62 284.387,343.941 289.181,340.245 z" fill="url(#Gradient_1)"/>
    <path d="M292.647,361.368 C302.118,361.368 309.837,365.227 316.041,368.337 C319.552,370.081 322.579,371.595 325.341,372.204 C327.538,372.693 328.792,372.359 328.829,372.293 C329.036,371.892 328.392,370.318 327.545,369.19 L326.395,367.646 L328.22,367.067 C331.872,365.91 332.146,364.856 332.169,364.737 C332.221,364.395 331.769,363.892 331.516,363.698 L329.481,362.177 L331.856,361.301 C333.594,360.685 334.677,359.898 334.774,359.223 C334.886,358.406 333.698,357.293 333.253,356.989 L331.612,355.831 L333.29,354.726 C334.157,354.153 335.183,353.27 335.026,352.402 C334.425,349.018 322.401,344.758 314.06,342.82 L314.468,340.126 C314.482,340.126 315.915,340.23 317.6,340.23 C320.071,340.23 321.229,340.008 321.749,339.845 C321.259,339.681 320.16,338.864 317.37,337.544 C314.55,336.215 311.439,335.54 308.137,335.54 C298.451,335.54 290.05,341.313 289.968,341.366 C286.405,344.112 282.798,344.327 280.861,344.186 L278.909,361.472 C278.567,361.509 280.564,362.562 288.425,361.628 C289.872,361.449 291.282,361.368 292.647,361.368 z M327.716,375.254 C326.87,375.254 325.905,375.136 324.747,374.876 C321.667,374.192 318.342,372.538 314.831,370.778 C307.661,367.194 299.483,363.075 288.735,364.337 C280.097,365.36 277.321,364.782 276.29,362.822 L275.911,362.095 L276.431,360.536 L278.486,340.884 L280.03,341.299 C280.038,341.299 280.72,341.484 281.804,341.484 C283.415,341.484 285.864,341.076 288.351,339.161 C288.78,338.864 297.567,332.809 308.137,332.809 C311.848,332.809 315.351,333.573 318.542,335.079 C323.292,337.321 324.999,338.872 324.606,340.616 C324.421,341.44 323.834,342.026 322.728,342.405 C329.178,344.49 336.978,347.845 337.713,351.927 C337.973,353.367 337.446,354.718 336.147,355.95 C336.919,356.825 337.69,358.102 337.483,359.587 C337.298,360.989 336.303,362.177 334.521,363.119 C334.812,363.684 334.997,364.374 334.87,365.16 C334.618,366.749 333.245,368.04 330.699,369.087 C331.36,370.349 331.983,372.122 331.278,373.532 C330.878,374.319 329.942,375.254 327.716,375.254" fill="#F3B981"/>
    <path d="M328.644,369.368 C328.436,369.368 328.22,369.302 328.05,369.161 C327.983,369.116 321.808,364.492 317.303,363.224 C316.776,363.075 316.472,362.525 316.62,361.999 C316.769,361.472 317.325,361.152 317.845,361.309 C322.698,362.688 328.978,367.38 329.237,367.587 C329.675,367.906 329.765,368.53 329.431,368.968 C329.237,369.227 328.94,369.368 328.644,369.368" fill="#F3B981"/>
    <path d="M332.325,363.587 C332.065,363.587 331.798,363.483 331.604,363.268 C331.553,363.224 326.914,358.384 320.427,357.991 C319.886,357.954 319.462,357.493 319.492,356.944 C319.529,356.395 320.012,356.009 320.546,356.009 C327.842,356.439 332.837,361.694 333.044,361.917 C333.415,362.317 333.401,362.934 333,363.312 C332.814,363.49 332.569,363.587 332.325,363.587" fill="#F3B981"/>
    <path d="M334.039,356.855 C333.735,356.855 333.431,356.707 333.237,356.454 C333.192,356.395 328.881,351.126 322.201,351.267 L322.194,351.267 C321.645,351.267 321.214,350.829 321.199,350.279 C321.192,349.679 321.675,349.308 322.372,349.277 C330.433,349.277 334.67,355.044 334.849,355.289 C335.167,355.727 335.063,356.351 334.626,356.677 C334.447,356.796 334.247,356.855 334.039,356.855" fill="#F3B981"/>
    <path d="M202.183,303.655 C202.183,303.655 227.966,333.054 230.325,337.662 C245.125,342.309 292.833,333.254 292.833,333.254 C292.833,333.254 301.828,354.302 293.775,365.42 C293.775,365.42 217.397,385.236 195.28,364.352 C183.078,352.833 180.703,336.371 177.134,322.893 C173.571,309.415 177.407,289.368 202.183,303.655 z" fill="url(#Gradient_2)"/>
    <path d="M171.871,283.527 C177.72,286.169 192.786,293.413 199.821,301.474 C218.288,322.633 202.183,394.136 202.183,405.343 L94.847,421.151 C89.191,395.806 80.872,320.065 115.183,295.743 C124.26,289.302 137.278,286.273 143.928,283.126 C151.35,279.579 164.983,280.454 171.871,283.527 z" fill="url(#Gradient_3)"/>
    <path d="M65.464,417.774 L65.464,432.454 L314.03,474.262 L528.686,418.894 L528.686,400.822 L65.464,417.774" fill="#A29983"/>
    <path d="M65.464,417.774 L337.75,369.176 L532.084,401.95 L312.887,456.183 L65.464,417.774" fill="#BBAE92"/>
    <path d="M288.112,303.589 L424.534,288.863 L443.675,294.757 L302.83,315.359 L288.112,303.589" fill="#E4E4E3"/>
    <path d="M299.892,310.446 L443.675,294.757 L432.394,410.567 L288.112,430.184 L299.892,310.446" fill="#B4B5B4"/>
    <path d="M174.261,404.667 L290.071,387.011 L288.112,421.366 L176.22,413.507 L174.261,404.667" fill="#B4B5B4"/>
    <path d="M175.241,419.399 C175.241,419.399 171.314,415.474 174.261,404.667 L281.239,414.501 L288.112,303.589 L301.353,309.964 L294.97,419.399 L287.126,430.184 L175.241,419.399" fill="#CBCCCB"/>
    <path d="M294.48,421.366 C294.48,425.976 290.755,429.708 286.153,429.708 C281.536,429.708 277.812,425.976 277.812,421.366 C277.812,416.75 281.536,413.017 286.153,413.017 C290.755,413.017 294.48,416.75 294.48,421.366" fill="#8A8B8A"/>
    <path d="M430.368,313.734 C430.687,317.252 428.097,320.34 424.586,320.659 L411.864,321.794 C408.369,322.106 405.274,319.516 404.948,316.013 C404.636,312.495 407.233,309.399 410.744,309.088 L423.442,307.96 C426.961,307.634 430.048,310.231 430.368,313.734" fill="#CBCCCB"/>
    <path d="M57.308,219.647 C47.429,230.483 55.867,231.381 42.745,247.857 C35.94,256.393 33.617,278.829 43.473,290.927 C60.246,311.493 76.901,301.532 85.94,297.852 C85.94,297.852 73.739,286.073 80.916,273.255 C88.101,260.423 106.054,248.185 93.911,228.946 C81.77,209.709 61.53,211.735 57.308,219.647" fill="#4F433B"/>
    <path d="M18.372,192.936 C18.372,192.936 -10.387,139.661 10.46,82.216 C31.294,24.749 90.698,-9.577 134.94,5.675 C134.94,5.675 207.125,-16.695 251.374,58.043 C293.182,128.685 240.183,185.677 240.183,185.677 C240.183,185.677 181.631,251.962 125.7,249.431 C69.769,246.886 34.181,224.567 18.372,192.936" fill="#4F433B"/>
    <path d="M173.155,360.144 C173.155,360.144 145.761,323.152 146.6,305.348 C146.6,305.348 174.565,301.681 178.796,299.128 C178.796,299.128 178.743,353.686 173.155,360.144" fill="#EEB4C9"/>
    <path d="M174.38,284.781 C174.38,284.781 172.524,283.319 169.073,282.035 C169.362,281.122 169.526,280.128 169.526,279.044 C169.526,271.652 164.331,265.692 157.888,265.692 C151.476,265.692 146.266,271.652 146.266,279.044 C146.266,280.165 146.458,281.182 146.755,282.14 C144.915,282.726 143,283.453 140.996,284.373 C140.996,284.373 130.568,308.984 156.849,310.246 C188.14,311.723 174.38,284.781 174.38,284.781 z" fill="url(#Gradient_4)"/>
    <path d="M102.446,208.841 C102.284,219.58 93.511,227.032 82.942,227.989 C69.041,229.243 63.771,218.46 61.575,207.928 C58.829,194.836 69.769,183.94 83.544,189.076 C93.496,192.78 102.625,198.094 102.446,208.841 z" fill="url(#Gradient_5)"/>
    <path d="M253.378,168.977 C253.06,188.735 252.324,220.278 246.528,233.845 C233.436,264.394 197.714,278.31 167.581,277.827 C135.964,277.315 98.981,261.254 89.503,231.715 C85.05,217.792 76.537,185.143 76.856,165.066 C77.532,123.363 110.581,77.169 170.772,78.119 C230.964,79.077 254.091,125.315 253.378,168.977 z" fill="#F9D4AD"/>
    <path d="M131.585,226.23 C131.407,237.942 121.767,247.264 110.069,247.071 C98.364,246.886 89.028,237.259 89.222,225.555 C89.407,213.865 99.048,204.528 110.737,204.707 C122.441,204.899 131.763,214.533 131.585,226.23 z" fill="url(#Gradient_6)"/>
    <path d="M204.23,227.076 C204.052,238.766 213.382,248.407 225.086,248.593 C236.782,248.785 246.417,239.456 246.603,227.744 C246.788,216.048 237.45,206.414 225.769,206.243 C214.058,206.043 204.423,215.38 204.23,227.076 z" fill="url(#Gradient_7)"/>
    <path d="M218.599,196.023 C219.816,191.54 218.443,188.148 218.369,187.977 C218.05,187.206 218.399,186.301 219.163,185.981 C219.928,185.633 220.825,185.989 221.175,186.769 C221.264,186.969 222.927,190.969 221.687,196.275 C222.593,196.461 223.476,196.751 224.3,197.137 C227.231,194.049 227.937,190.041 227.937,189.981 C228.077,189.15 228.856,188.587 229.688,188.727 C230.526,188.847 231.091,189.633 230.964,190.472 C230.912,190.724 230.163,195.102 226.935,198.799 C229.978,201.263 231.907,205.107 231.84,209.435 C231.722,216.745 225.946,222.571 218.94,222.468 C211.935,222.349 206.339,216.337 206.457,209.034 C206.575,202.005 211.942,196.343 218.599,196.023" fill="#2D2118"/>
    <path d="M133.871,194.68 C135.089,190.175 133.723,186.798 133.642,186.62 C133.314,185.848 133.663,184.95 134.435,184.623 C135.207,184.274 136.112,184.623 136.438,185.41 C136.536,185.618 138.206,189.61 136.951,194.91 C137.872,195.102 138.755,195.385 139.579,195.786 C142.503,192.684 143.216,188.698 143.216,188.645 C143.356,187.8 144.113,187.235 144.967,187.362 C145.806,187.503 146.362,188.282 146.235,189.106 C146.191,189.366 145.442,193.752 142.214,197.434 C145.249,199.897 147.187,203.765 147.119,208.091 C147.001,215.387 141.219,221.213 134.212,221.109 C127.214,221.005 121.618,214.978 121.736,207.668 C121.848,200.64 127.222,194.984 133.871,194.68" fill="#2D2118"/>
    <path d="M118.248,172.696 C118.642,172.704 119.021,172.548 119.294,172.243 C128.075,162.84 138.718,165.935 139.171,166.068 C139.883,166.306 140.669,165.876 140.907,165.148 C141.13,164.421 140.714,163.642 139.987,163.411 C139.475,163.248 127.266,159.626 117.269,170.344 C116.727,170.915 116.764,171.798 117.335,172.317 C117.58,172.562 117.929,172.688 118.248,172.696" fill="#7D563A"/>
    <path d="M237.466,174.597 C237.808,174.603 238.118,174.477 238.401,174.255 C238.987,173.75 239.039,172.867 238.534,172.296 C228.871,161.267 216.573,164.48 216.054,164.629 C215.312,164.837 214.874,165.594 215.066,166.328 C215.274,167.078 216.031,167.516 216.788,167.315 C217.249,167.182 227.95,164.45 236.441,174.114 C236.708,174.44 237.079,174.597 237.466,174.597" fill="#7D563A"/>
    <path d="M178.536,225.837 C180.74,225.874 182.321,225.191 183.241,223.811 C185.335,220.642 182.528,215.438 181.95,214.422 C181.482,213.628 180.466,213.36 179.664,213.813 C178.87,214.267 178.588,215.29 179.056,216.092 C180.079,217.895 181.142,220.931 180.45,221.97 C180.14,222.445 179.107,222.608 177.616,222.423 C176.695,222.311 175.872,222.957 175.745,223.855 C175.619,224.79 176.272,225.622 177.185,225.733 C177.66,225.8 178.12,225.837 178.536,225.837" fill="#917E70"/>
    <path d="M203.266,381.852 C202.709,381.852 202.189,381.57 201.878,381.073 C201.396,380.257 199.258,375.402 205.077,359.602 C210.583,344.661 201.944,329.461 201.855,329.312 C201.403,328.519 201.677,327.487 202.479,327.019 C203.28,326.566 204.29,326.849 204.75,327.643 C205.144,328.311 214.25,344.364 208.201,360.759 C202.909,375.157 204.75,379.395 204.78,379.418 C205.151,380.22 204.861,381.222 204.067,381.644 C203.815,381.778 203.532,381.852 203.266,381.852" fill="#4D4E4C"/>
    <path d="M91.492,76.969 C91.492,76.969 96.657,132.091 123.072,163.656 L144.306,164.235 C144.306,164.235 133.982,140.122 133.982,134.377 C133.982,134.377 150.638,162.506 161.54,165.95 C161.54,165.95 185.075,168.251 190.819,165.95 C190.819,165.95 173.601,142.423 173.021,136.099 C173.021,136.099 197.136,165.371 205.745,167.672 C205.745,167.672 226.985,169.965 233.31,167.672 C233.31,167.672 217.219,144.716 214.933,136.678 C214.933,136.678 238.468,157.341 239.618,168.251 C239.618,168.251 253.394,169.394 263.153,166.528 C263.153,166.528 272.333,116.579 233.874,85.007 C195.413,53.435 135.133,27.019 91.492,76.969" fill="#4F433B"/>
    <path d="M140.202,283.571 C140.202,283.571 163.366,344.401 173.563,362.488 C173.563,362.488 148.069,342.071 140.551,331.31 L144.618,317.86 L128.839,308.524 C128.839,308.524 129.344,294.333 140.202,283.571" fill="#636463"/>
    <path d="M173.155,282.177 C173.155,282.177 173.615,345.403 171.263,366.051 C171.263,366.051 186.641,336.645 189.387,323.806 L180.399,312.977 L191.316,298.245 C191.316,298.245 187.331,287.892 173.155,282.177" fill="#636463"/>
    <path d="M250.647,218.341 C249.044,221.844 247.218,225.637 243.003,225.637 L204.595,225.637 C200.356,225.637 196.304,221.769 196.304,217.725 L193.388,193.603 C193.388,189.566 196.823,186.286 201.039,186.286 L248.034,186.286 C252.25,186.286 254.062,189.032 254.062,193.069 L250.647,218.341 z M161.332,217.725 C161.332,221.769 157.28,225.637 153.042,225.637 L114.642,225.637 C110.418,225.637 108.6,221.844 106.989,218.341 L103.56,193.069 C103.56,189.032 105.371,186.286 109.616,186.286 L156.604,186.286 C160.827,186.286 164.249,189.566 164.249,193.603 L161.332,217.725 z M253.155,180.645 L195.918,180.645 C190.864,180.645 186.752,184.846 186.752,190.041 L187.843,198.591 L169.815,198.591 L170.869,190.041 C170.869,184.846 166.78,180.645 161.703,180.645 L104.474,180.645 C99.427,180.645 95.314,184.846 95.314,190.041 L100.361,221.895 C102.669,227.247 104.474,231.292 109.521,231.292 L157.495,231.292 C162.55,231.292 166.973,226.274 166.973,221.079 L168.872,205.894 L188.749,205.894 L190.671,221.079 C190.671,226.274 195.087,231.292 200.148,231.292 L248.116,231.292 C253.171,231.292 254.959,227.247 257.282,221.895 L262.307,190.041 C262.307,184.846 258.21,180.645 253.155,180.645" fill="#AB2430"/>
    <path d="M226.459,371.276 C226.459,371.276 242.884,363.342 255.485,371.974 C268.103,380.591 251.13,376.501 251.13,376.501 C251.13,376.501 280.23,388.413 268.274,393.809 C268.274,393.809 273.298,398.707 265.521,400.177 C265.521,400.177 269.409,404.044 260.964,405.312 C260.964,405.312 265.104,413.231 256.585,409.84 C248.153,406.5 238.876,394.321 222.259,393.638 C208.921,393.097 211.638,390.246 211.638,390.246 L216.692,372.114 C216.692,372.114 221.146,374.192 226.459,371.276 z" fill="url(#Gradient_8)"/>
    <path d="M217.627,373.844 L212.951,390.617 C212.751,390.647 213.827,391.931 222.31,392.272 C233.866,392.747 242.001,398.589 248.539,403.286 C251.724,405.565 254.47,407.532 257.089,408.571 C259.806,409.64 260.481,409.306 260.525,409.209 C260.778,408.794 260.399,407.176 259.746,405.943 L258.87,404.251 L260.755,403.962 C264.556,403.391 264.985,402.381 265.03,402.269 C265.149,401.892 264.688,401.282 264.556,401.142 L262.715,399.309 L265.269,398.833 C267.063,398.484 268.267,397.898 268.467,397.245 C268.696,396.488 267.776,395.241 267.316,394.781 L265.899,393.386 L267.71,392.569 C268.667,392.132 269.803,391.434 269.788,390.551 C269.729,387.122 258.544,381.006 250.61,377.763 L251.456,375.173 C251.493,375.18 257.186,376.249 258.67,376.056 C258.218,375.804 257.245,374.831 254.722,373.102 C251.048,370.586 246.646,369.316 241.63,369.316 C233.755,369.316 227.12,372.471 227.053,372.508 C225.034,373.614 222.829,374.2 220.581,374.2 C219.401,374.2 218.392,374.029 217.627,373.844 z M259.999,412.052 C258.952,412.052 257.668,411.747 256.079,411.109 C253.141,409.951 250.135,407.792 246.943,405.498 C240.375,400.785 232.938,395.441 222.206,394.996 C212.603,394.618 210.747,393.022 210.205,391.679 L209.871,390.848 L210.644,389.304 L215.802,370.207 L217.263,370.868 C217.286,370.883 222.266,372.011 225.798,370.081 C226.155,369.903 233.132,366.578 241.63,366.578 C247.203,366.578 252.132,368.011 256.258,370.838 C260.481,373.726 261.936,375.484 261.423,377.117 C261.112,378.156 260.14,378.571 259.249,378.735 C265.282,381.822 272.452,386.364 272.526,390.499 C272.549,391.976 271.813,393.215 270.345,394.231 C270.968,395.212 271.517,396.592 271.087,398.032 C270.679,399.383 269.506,400.399 267.606,401.045 C267.799,401.653 267.873,402.366 267.628,403.123 C267.124,404.644 265.565,405.706 262.878,406.345 C263.309,407.636 263.636,409.372 262.863,410.634 C262.478,411.28 261.661,412.052 259.999,412.052" fill="#F3B981"/>
    <path d="M260.964,406.308 C260.704,406.308 260.444,406.203 260.251,406.003 C260.191,405.943 254.817,400.399 250.587,398.418 C250.091,398.187 249.875,397.594 250.112,397.104 C250.343,396.614 250.951,396.392 251.427,396.622 C255.998,398.759 261.446,404.385 261.676,404.63 C262.062,405.016 262.047,405.646 261.646,406.032 C261.453,406.211 261.216,406.308 260.964,406.308" fill="#F3B981"/>
    <path d="M265.521,401.164 C265.201,401.164 264.89,401.008 264.704,400.733 C264.659,400.674 260.853,395.167 254.499,393.742 C253.957,393.638 253.623,393.097 253.749,392.569 C253.868,392.027 254.402,391.693 254.922,391.812 C262.069,393.4 266.166,399.368 266.345,399.62 C266.648,400.073 266.53,400.688 266.077,400.993 C265.906,401.112 265.714,401.164 265.521,401.164" fill="#F3B981"/>
    <path d="M268.274,394.804 C267.91,394.804 267.562,394.602 267.391,394.254 C267.272,394.024 264.37,388.45 257.327,387.403 C256.792,387.314 256.421,386.817 256.495,386.269 C256.577,385.727 257.022,385.355 257.624,385.43 C265.714,386.64 269.023,393.097 269.165,393.363 C269.409,393.86 269.209,394.454 268.72,394.692 C268.578,394.767 268.423,394.804 268.274,394.804" fill="#F3B981"/>
    <path d="M124.364,308.094 C124.364,308.094 154.868,352.499 168.754,359.431 C182.626,366.355 231.172,364.975 231.172,364.975 C231.172,364.975 236.731,387.166 227.009,396.874 C227.009,396.874 150.733,402.411 129.907,380.227 C109.119,358.035 100.792,346.939 99.396,333.061 C98.017,319.204 102.173,290.081 124.364,308.094 z" fill="url(#Gradient_9)"/>
    <path d="M174.246,264.074 C173.229,264.074 172.228,263.985 171.226,263.785 C160.798,261.773 156.255,249.98 156.077,249.483 C155.417,247.739 156.308,245.794 158.052,245.134 C159.767,244.474 161.74,245.349 162.415,247.101 C162.445,247.183 165.845,255.866 172.532,257.135 C177.601,258.062 183.806,254.634 190.634,247.145 C191.896,245.772 194.048,245.668 195.421,246.923 C196.802,248.185 196.905,250.329 195.644,251.71 C188.14,259.926 180.956,264.074 174.246,264.074" fill="#E77D84"/>
  </g>
</svg>
