<?xml version="1.0" encoding="UTF-8"?>
<!DOCTYPE svg PUBLIC "-//W3C//DTD SVG 1.1//EN" "http://www.w3.org/Graphics/SVG/1.1/DTD/svg11.dtd">
<svg version="1.1" xmlns="http://www.w3.org/2000/svg" xmlns:xlink="http://www.w3.org/1999/xlink" x="0" y="0" width="605" height="540" viewBox="0, 0, 605, 540">
  <defs>
    <radialGradient id="Gradient_1" gradientUnits="userSpaceOnUse" cx="499.606" cy="-189.034" r="29.764" gradientTransform="matrix(1, 0, 0, -1, 0, 0)">
      <stop offset="0" stop-color="#EA9098"/>
      <stop offset="1" stop-color="#F5C4AD"/>
    </radialGradient>
    <clipPath id="Clip_1">
      <path d="M469.842,159.267 L529.371,159.267 L529.371,218.801 L469.842,218.801 z"/>
    </clipPath>
    <radialGradient id="Gradient_2" gradientUnits="userSpaceOnUse" cx="316.715" cy="-162.891" r="29.762" gradientTransform="matrix(1, 0, 0, -1, 0, 0)">
      <stop offset="0.005" stop-color="#EC999B"/>
      <stop offset="1" stop-color="#F5C4AD"/>
    </radialGradient>
    <clipPath id="Clip_2">
      <path d="M286.953,133.13 L346.477,133.13 L346.477,192.654 L286.953,192.654 z"/>
    </clipPath>
  </defs>
  <g id="Layer_1">
    <g>
      <path d="M477.194,9.31 C477.194,9.31 552.523,12.766 583.622,78.419 C614.72,144.072 593.988,186.919 580.857,205.579 C567.726,224.238 548.377,231.148 548.377,231.148 L535.937,79.11 z" fill="#8B754E"/>
      <path d="M554.302,220.585 C554.302,220.585 584.841,214.167 595.67,244.261 C603.042,264.748 582.355,277.904 585.781,289.81 C589.208,301.715 603.328,309.203 603.328,309.203 C603.328,309.203 550.351,300.361 561.285,267.774 C573.278,232.038 548.575,230.072 548.575,230.072" fill="#8B754E"/>
      <path d="M1.672,453.914 L174.163,530.41 L447.15,414.915 L292.657,353.419 z" fill="#C7A16C"/>
      <path d="M286.067,369.251 L84.929,430.539 L42.394,290.941 L247.278,241.297 z" fill="#808180"/>
      <path d="M279.241,367.736 L89.761,425.471 L49.692,293.967 L242.699,247.2 z" fill="#AEDDEC"/>
      <path d="M78.867,427.634 L84.929,430.539 L42.393,290.942 L40.006,297.82 z" fill="#777776"/>
      <path d="M84.894,440.326 L84.928,430.54 L187.482,473.765 L187.447,483.555 z" fill="#777776"/>
      <path d="M373.784,415.483 L373.817,405.697 L187.482,473.765 L187.447,483.554 z" fill="#777776"/>
      <path d="M286.067,369.251 L84.929,430.539 L186.757,474.532 L374.161,405.352 z" fill="#8A8B8A"/>
      <path d="M280.371,370.987 L96.778,426.928 L159.543,454.684 L330.601,391.539 z" fill="#777776"/>
      <path d="M114.556,423.621 L172.448,449.25" fill-opacity="0" stroke="#CBCCCB" stroke-width="1.046"/>
      <path d="M128.619,418.657 L186.512,444.288" fill-opacity="0" stroke="#CBCCCB" stroke-width="1.046"/>
      <path d="M144.737,414.112 L200.399,438.731" fill-opacity="0" stroke="#CBCCCB" stroke-width="1.046"/>
      <path d="M158.8,409.15 L214.511,433.803" fill-opacity="0" stroke="#CBCCCB" stroke-width="1.046"/>
      <path d="M171.193,404.602 L226.61,429.098" fill-opacity="0" stroke="#CBCCCB" stroke-width="1.046"/>
      <path d="M185.257,400.537 L239.603,424.619" fill-opacity="0" stroke="#CBCCCB" stroke-width="1.046"/>
      <path d="M199.359,396.439 L251.7,420.138" fill-opacity="0" stroke="#CBCCCB" stroke-width="1.046"/>
      <path d="M211.405,392.596 L263.797,415.656" fill-opacity="0" stroke="#CBCCCB" stroke-width="1.046"/>
      <path d="M226.162,387.877 L278.358,410.055" fill-opacity="0" stroke="#CBCCCB" stroke-width="1.046"/>
      <path d="M240.051,383.621 L290.456,405.575" fill-opacity="0" stroke="#CBCCCB" stroke-width="1.046"/>
      <path d="M252.372,380.485 L303.674,401.544" fill-opacity="0" stroke="#CBCCCB" stroke-width="1.046"/>
      <path d="M264.022,377.123 L316.22,397.062" fill-opacity="0" stroke="#CBCCCB" stroke-width="1.046"/>
      <path d="M111.261,431.059 L286.551,374.834" fill-opacity="0" stroke="#CBCCCB" stroke-width="1.046"/>
      <path d="M122.01,436.021 L298.129,378.967" fill-opacity="0" stroke="#CBCCCB" stroke-width="1.046"/>
      <path d="M308.463,383.515 L134.827,441.397" fill-opacity="0" stroke="#CBCCCB" stroke-width="1.046"/>
      <path d="M146.817,446.771 L317.559,387.648" fill-opacity="0" stroke="#CBCCCB" stroke-width="1.046"/>
      <path d="M297.2,430.731 L262.477,443.265 L239.768,433.486 L274.489,420.951 z" fill="#777776"/>
      <path d="M354.08,441.395 L306.669,423.805 C306.669,423.805 277.909,423.581 269.851,419.934 C266.701,418.51 263.094,413.169 269.647,411.509 C276.201,409.85 283.482,410.633 287.801,407.985 C292.118,405.334 287.909,398.674 283.128,394.2 C278.346,389.725 263.311,397.932 259.672,395.849 C256.033,393.767 254.525,391.841 262.537,388.31 C270.549,384.78 269.039,386.235 269.039,386.235 C269.039,386.235 274.608,380.047 280.068,379.792 C285.529,379.536 287.56,375.479 293.541,376.004 C299.521,376.528 324.85,390.173 328.809,396.116 C330.707,398.963 368.198,412.725 368.198,412.725" fill="#F5C4AD"/>
      <path d="M464.142,326.871 C464.142,326.871 440.345,321.666 422.869,350.297 C411.456,368.992 396.887,411.27 396.887,411.27 L354.911,404.184 C354.911,404.184 339.751,405.944 336.877,422.217 C334.004,438.49 338.463,442.883 338.463,442.883 C338.463,442.883 402.731,468.088 423.082,454.537 C443.435,440.987 474.988,350.132 474.988,350.132" fill="#E98776"/>
      <path d="M566.473,174.769 C559.531,252.204 490.393,309.288 412.046,302.264 C333.696,295.241 275.812,226.769 282.753,149.336 C289.695,71.902 358.835,14.819 437.185,21.843 C515.53,28.867 573.415,97.335 566.473,174.769" fill="#F5C4AD"/>
      <path d="M398.157,138.852 L393.999,161.944 L394.432,171.374 C394.432,171.374 391.03,168.956 389.028,162.872 C387.023,156.799 398.157,138.852 398.157,138.852" fill="#EB9073"/>
      <path d="M596.194,188.374 C591.795,202.731 579.742,211.776 569.279,208.57 C558.814,205.364 553.9,191.122 558.298,176.765 C562.699,162.404 574.748,153.366 585.211,156.571 C595.673,159.777 600.595,174.016 596.194,188.374" fill="#F5C4AD"/>
      <path d="M359.284,107.865 C359.284,107.865 364.4,103.017 373.388,103.373 C382.383,103.729 385.284,111.66 385.284,111.66" fill-opacity="0" stroke="#4D4E4C" stroke-width="4.417" stroke-linecap="round" stroke-linejoin="round"/>
      <path d="M431.419,114.558 C431.419,114.558 435.89,107.322 444.554,109.753 C453.729,112.327 456.442,118.038 456.442,118.038" fill-opacity="0" stroke="#4D4E4C" stroke-width="4.417" stroke-linecap="round" stroke-linejoin="round"/>
      <g clip-path="url(#Clip_1)">
        <path d="M469.842,189.164 C469.916,205.602 483.306,218.868 499.743,218.801 C516.176,218.72 529.444,205.338 529.37,188.903 C529.295,172.462 515.914,159.202 499.472,159.267 C483.038,159.344 469.78,172.728 469.842,189.164" fill="url(#Gradient_1)"/>
      </g>
      <g clip-path="url(#Clip_2)">
        <path d="M286.953,163.024 C287.025,179.457 300.416,192.727 316.852,192.652 C333.289,192.574 346.556,179.201 346.476,162.76 C346.41,146.326 333.023,133.058 316.588,133.129 C300.149,133.202 286.877,146.585 286.953,163.024" fill="url(#Gradient_2)"/>
      </g>
      <path d="M457.7,316.727 L407.569,328.81 L399.111,293.718 L449.242,281.635 z" fill="#F5C4AD"/>
      <path d="M368.999,537.908 L495.646,537.908 C495.646,537.908 497.574,511.618 496.862,488.989 C496.115,465.237 499.705,443.74 498.722,383.762 C497.978,338.398 465.14,310.544 463.397,310.511 C449.818,310.247 411.558,326.271 408.062,330.151 C405.901,332.548 386.474,360.166 379.112,375.235 C338.274,458.834 376.97,438.031 368.999,537.908" fill="#EB9785"/>
      <path d="M287.151,474.86 L254.314,460.527 C254.314,460.527 239.901,459.843 232.228,448.113 C228.354,442.191 221.222,440.985 215.037,440.985 C208.851,440.985 192.464,445.074 196.588,438.888 C200.711,432.703 220.789,431.16 220.789,431.16 C220.789,431.16 202.233,430.472 196.734,429.098 C191.236,427.724 188.487,422.912 198.109,421.538 C207.731,420.165 213.778,419.601 213.778,419.601 C213.778,419.601 198.796,416.728 200.171,413.291 C201.546,409.854 200.858,407.794 207.731,408.48 C214.603,409.168 235.582,415.408 235.582,415.408 C235.582,415.408 231.063,411.345 230.55,409.119 C230.037,406.892 215.842,410.498 215.291,407.106 C213.778,397.797 233.1,401.455 235.162,402.83 C237.225,404.204 249.655,418.79 249.655,418.79 L289.67,441.404" fill="#F5C4AD"/>
      <path d="M410.594,348.875 C410.594,348.875 395.855,340.209 387.665,363.413 C379.475,386.618 357.426,448.46 357.426,448.46 L289.382,435.445 C289.382,435.445 275.507,434.807 270.047,452.55 C264.586,470.294 270.418,475.975 270.418,475.975 C270.418,475.975 357.77,512.43 382.339,500.145 C406.907,487.86 441.471,401.86 441.471,401.86" fill="#EB9785"/>
      <path d="M430.677,362.567 C430.677,362.567 438.029,373.887 436.254,388.966 C434.48,404.046 400.789,488.388 393.122,496.054 C385.455,503.72 369.621,504.316 369.621,504.316" fill-opacity="0" stroke="#FFFFFE" stroke-width="3"/>
      <path d="M383.805,131.588 C384.644,139.912 378.577,147.34 370.253,148.179 C361.928,149.019 354.5,142.95 353.661,134.626 C352.824,126.302 358.89,118.874 367.215,118.035 C375.54,117.196 382.966,123.264 383.805,131.588" fill="#414241"/>
      <path d="M460.965,143.682 C461.804,152.007 455.736,159.435 447.411,160.274 C439.087,161.113 431.658,155.044 430.819,146.72 C429.982,138.396 436.049,130.968 444.374,130.129 C452.698,129.29 460.127,135.358 460.965,143.682" fill="#414241"/>
      <path d="M437.198,192.853 C437.198,192.853 417.788,241.118 399.625,239.447 C384.541,238.059 371.962,186.073 371.962,186.073 C371.962,186.073 379.846,189.98 405.546,192.345 C431.243,194.709 437.198,192.853 437.198,192.853" fill="#E6746A"/>
      <path d="M364.435,45.831 C364.435,45.831 367.357,45.836 332.757,63.905 C298.156,81.974 291.983,115.737 291.983,115.737 C291.983,115.737 292.675,81.873 309.26,61.141 C333.689,30.604 357.943,12.852 410.85,3.781 C464.593,-5.434 520.908,14.738 556.669,55.612 C592.432,96.488 583.622,126.794 579.475,140.616 C574.362,157.66 562.198,167.568 562.198,167.568 C562.198,167.568 565.609,150.222 557.36,135.087 C521.878,70 434.004,57.963 434.004,57.963 L467.519,100.533 C467.519,100.533 432.687,90.824 396.993,73.154 C376.89,63.202 364.435,45.831 364.435,45.831" fill="#8B754E"/>
      <path d="M425.95,50.841 C425.95,50.841 475.711,96.608 497.096,111.886 C518.482,127.164 545.832,135.33 545.832,135.33 L521.652,79.993" fill="#8B754E"/>
      <path d="M395.248,345.812 C395.248,345.812 403.482,326.788 409.011,325.406 C414.539,324.024 455.925,307.431 462.067,306.954 C468.21,306.476 476.398,322.558 476.398,322.558 z" fill="#FFFFFE"/>
    </g>
  </g>
</svg>
